<svg xmlns="http://www.w3.org/2000/svg" xmlns:xlink="http://www.w3.org/1999/xlink" fill="none" version="1.1" width="423" height="181" viewBox="0 0 423 181"><defs><radialGradient cx="0" cy="0" r="1" gradientUnits="userSpaceOnUse" id="master_svg0_139_05180" gradientTransform="translate(85.49997451901436 90.49994605779648) rotate(90) scale(90.49994605779648 85.49996942280508)"><stop offset="40.00000059604645%" stop-color="#DB0000" stop-opacity="1"/><stop offset="96.82329297065735%" stop-color="#FFC800" stop-opacity="1"/></radialGradient></defs><g><g><path d="M189.95508,80L189.95508,25.4346L199.8279,25.4346L199.8279,50.5126L200.5168,50.5126L221.8006,25.4346L233.8563,25.4346L212.7626,49.9266L234.03199999999998,80L222.1525,80L205.8778,56.6209L199.8279,63.7843L199.8279,80L189.95508,80ZM249.31040000000002,80.8348Q245.4143,80.8348,242.29410000000001,79.4249Q239.1738,78.015,237.3794,75.2684Q235.585,72.5219,235.585,68.501Q235.585,65.0437,236.8741,62.7847Q238.1633,60.525,240.3789,59.1592Q242.59449999999998,57.7927,245.3662,57.0901Q248.1386,56.3868,251.12720000000002,56.079Q254.7452,55.691,256.9677,55.3906Q259.1907,55.0902,260.2126,54.431Q261.2346,53.7719,261.2346,52.4026L261.2346,52.212Q261.2346,49.2308,259.4653,47.5795Q257.6967,45.9275,254.3201,45.9275Q250.7902,45.9275,248.7245,47.4696Q246.6594,49.0111,245.927,51.1134L236.9325,49.8391Q238.002,46.1037,240.459,43.5918Q242.91660000000002,41.0792,246.4506,39.8124Q249.9845,38.5449,254.2766,38.5449Q257.2063,38.5449,260.13599999999997,39.2299Q263.0657,39.9148,265.5078,41.5152Q267.9506,43.1151,269.42629999999997,45.8365Q270.9026,48.5574,270.9026,52.6074L270.9026,80L261.6151,80L261.6151,74.3455L261.3222,74.3455Q260.4507,76.0598,258.8537,77.5355Q257.2572,79.0112,254.8951,79.9233Q252.5331,80.8348,249.31040000000002,80.8348ZM251.78640000000001,73.7304Q254.7012,73.7304,256.8326,72.5734Q258.96410000000003,71.4158,260.12850000000003,69.50059999999999Q261.293,67.58539999999999,261.293,65.3224L261.293,60.5027Q260.81690000000003,60.8764,259.7509,61.1951Q258.6854,61.5138,257.3413,61.7627Q255.99779999999998,62.0116,254.6937,62.1913Q253.3903,62.3704,252.44549999999998,62.4951Q250.2849,62.7955,248.578,63.4656Q246.8717,64.1356,245.8864,65.3149Q244.9016,66.49430000000001,244.9016,68.3694Q244.9016,71.013,246.8385,72.3719Q248.776,73.7304,251.78640000000001,73.7304ZM278.0362,80L278.0362,39.0576L287.352,39.0576L287.352,45.9275L287.79200000000003,45.9275Q288.913,42.361,291.655,40.4309Q294.398,38.5009,297.899,38.5009Q298.698,38.5009,299.694,38.5707Q300.69,38.6399,301.371,38.7795L301.371,47.6121Q300.734,47.4072,299.416,47.2533Q298.097,47.0994,296.874,47.0994Q294.23,47.0994,292.135,48.2346Q290.041,49.3699,288.85,51.3623Q287.65999999999997,53.3547,287.65999999999997,55.9617L287.65999999999997,80L278.0362,80ZM304.98900000000003,80L304.98900000000003,39.0576L314.159,39.0576L314.159,46.0597L314.687,46.0597Q315.96799999999996,42.5441,318.927,40.5448Q321.88599999999997,38.5449,325.966,38.5449Q330.126,38.5449,332.986,40.5591Q335.846,42.5732,336.996,46.0597L337.43600000000004,46.0597Q338.812,42.639,342.046,40.5923Q345.28,38.5449,349.725,38.5449Q355.365,38.5449,358.93899999999996,42.108Q362.514,45.6712,362.514,52.5193L362.514,80L352.846,80L352.846,54.0139Q352.846,50.2196,350.80899999999997,48.4475Q348.773,46.6748,345.844,46.6748Q342.365,46.6748,340.41999999999996,48.8538Q338.475,51.0327,338.475,54.4534L338.475,80L328.98400000000004,80L328.98400000000004,53.6179Q328.98400000000004,50.4617,327.101,48.5682Q325.219,46.6748,322.15700000000004,46.6748Q320.07,46.6748,318.356,47.7443Q316.642,48.8137,315.628,50.7031Q314.613,52.5925,314.613,55.1125L314.613,80L304.98900000000003,80ZM369.626,80L369.626,39.0576L379.25,39.0576L379.25,80L369.626,80ZM374.437,33.3007Q372.13800000000003,33.3007,370.497,31.7637Q368.85699999999997,30.2268,368.85699999999997,28.0564Q368.85699999999997,25.874,370.497,24.3434Q372.13800000000003,22.8127,374.437,22.8127Q376.738,22.8127,378.378,24.3434Q380.019,25.874,380.019,28.0495Q380.019,30.2245,378.378,31.7626Q376.738,33.3007,374.437,33.3007ZM404.174,80.8205Q398.08000000000004,80.8205,393.68899999999996,78.1215Q389.299,75.4224,386.943,70.6691Q384.589,65.91579999999999,384.589,59.7268Q384.589,53.4497,386.977,48.6855Q389.36400000000003,43.9208,393.755,41.2331Q398.14599999999996,38.5449,404.13,38.5449Q409.14,38.5449,412.974,40.3725Q416.808,42.1996,419.10400000000004,45.5104Q421.4,48.8206,421.723,53.2666L412.494,53.2666Q412.135,51.2816,411.081,49.7069Q410.026,48.1322,408.308,47.2281Q406.591,46.3235,404.262,46.3235Q401.288,46.3235,399.068,47.9056Q396.849,49.4872,395.61199999999997,52.4575Q394.374,55.4272,394.374,59.5654Q394.374,63.7328,395.59000000000003,66.7615Q396.80600000000004,69.7902,399.036,71.4164Q401.26599999999996,73.042,404.262,73.042Q407.448,73.042,409.66700000000003,71.1709Q411.88599999999997,69.2992,412.494,66.0107L421.723,66.0107Q421.38599999999997,70.3538,419.163,73.6937Q416.94,77.0337,413.135,78.9271Q409.33000000000004,80.8205,404.174,80.8205Z" fill="#5E0000" fill-opacity="1"/></g><g><path d="M189.95508,154L189.95508,99.4346L199.8279,99.4346L199.8279,124.51259999999999L200.5168,124.51259999999999L221.8006,99.4346L233.8563,99.4346L212.7626,123.92660000000001L234.03199999999998,154L222.1525,154L205.8778,130.6209L199.8279,137.7843L199.8279,154L189.95508,154ZM252.7019,154.82049999999998Q246.5421,154.82049999999998,242.0629,152.2353Q237.5842,149.6495,235.189,144.9145Q232.7943,140.179,232.7943,133.7703Q232.7943,127.4571,235.1747,122.68209999999999Q237.5551,117.9065,241.8872,115.2257Q246.22,112.5449,252.0719,112.5449Q255.84390000000002,112.5449,259.2347,113.76089999999999Q262.6262,114.9768,265.2446,117.4962Q267.863,120.0156,269.35699999999997,123.91980000000001Q270.8511,127.82339999999999,270.8511,133.2141L270.8511,136.1873L237.2913,136.1873L237.2913,129.71280000000002L266.0537,129.71280000000002L261.5642,131.6171Q261.5642,128.1604,260.5022,125.5677Q259.4402,122.9745,257.3413,121.5171Q255.243,120.05969999999999,252.1303,120.05969999999999Q249.01749999999998,120.05969999999999,246.8311,121.52850000000001Q244.6452,122.99680000000001,243.4951,125.4579Q242.345,127.9183,242.345,130.9579L242.345,135.4548Q242.345,139.2125,243.6559,141.8641Q244.9674,144.5151,247.3329,145.91070000000002Q249.699,147.3058,252.8186,147.3058Q254.89170000000001,147.3058,256.5906,146.709Q258.29,146.1116,259.5203,144.9214Q260.7511,143.7312,261.38800000000003,142.0032L270.3967,143.0577Q269.5476,146.60250000000002,267.1781,149.2501Q264.8086,151.8977,261.1316,153.3591Q257.4552,154.82049999999998,252.7019,154.82049999999998ZM276.0587,154L276.0587,113.05760000000001L285.3748,113.05760000000001L285.3748,119.92750000000001L285.8142,119.92750000000001Q286.935,116.36099999999999,289.678,114.43090000000001Q292.421,112.5009,295.922,112.5009Q296.72,112.5009,297.716,112.5707Q298.712,112.6399,299.394,112.7795L299.394,121.6121Q298.756,121.4072,297.438,121.2533Q296.12,121.0994,294.896,121.0994Q292.253,121.0994,290.158,122.2346Q288.063,123.3699,286.873,125.3623Q285.6826,127.35470000000001,285.6826,129.9617L285.6826,154L276.0587,154ZM314.02,154.8348Q310.124,154.8348,307.004,153.42489999999998Q303.883,152.015,302.089,149.26839999999999Q300.294,146.52190000000002,300.294,142.501Q300.294,139.0437,301.584,136.7847Q302.873,134.525,305.08799999999997,133.1592Q307.304,131.7927,310.076,131.0901Q312.848,130.3868,315.837,130.079Q319.45500000000004,129.691,321.677,129.3906Q323.9,129.0902,324.922,128.43099999999998Q325.94399999999996,127.7719,325.94399999999996,126.4026L325.94399999999996,126.212Q325.94399999999996,123.2308,324.175,121.5795Q322.406,119.92750000000001,319.03,119.92750000000001Q315.5,119.92750000000001,313.43399999999997,121.4696Q311.369,123.0111,310.63599999999997,125.1134L301.642,123.8391Q302.711,120.1037,305.168,117.5918Q307.626,115.0792,311.15999999999997,113.8124Q314.69399999999996,112.5449,318.986,112.5449Q321.916,112.5449,324.845,113.2299Q327.775,113.9148,330.217,115.5152Q332.65999999999997,117.1151,334.13599999999997,119.8365Q335.61199999999997,122.5574,335.61199999999997,126.6074L335.61199999999997,154L326.325,154L326.325,148.34550000000002L326.03200000000004,148.34550000000002Q325.15999999999997,150.0598,323.563,151.5355Q321.967,153.0112,319.605,153.92329999999998Q317.243,154.8348,314.02,154.8348ZM316.496,147.7304Q319.411,147.7304,321.54200000000003,146.5734Q323.674,145.4158,324.83799999999997,143.5006Q326.002,141.5854,326.002,139.32240000000002L326.002,134.5027Q325.526,134.8764,324.46000000000004,135.1951Q323.395,135.5138,322.051,135.7627Q320.707,136.0116,319.403,136.1913Q318.1,136.3704,317.155,136.4951Q314.994,136.7955,313.28700000000003,137.4656Q311.581,138.1356,310.596,139.3149Q309.611,140.4943,309.611,142.36939999999998Q309.611,145.013,311.548,146.37189999999998Q313.485,147.7304,316.496,147.7304ZM352.37,130.0349L352.37,154L342.746,154L342.746,113.05760000000001L352.179,113.05760000000001L352.179,120.05969999999999L352.648,120.05969999999999Q354.047,116.6024,357.04200000000003,114.574Q360.038,112.5449,364.645,112.5449Q368.871,112.5449,372.02,114.3468Q375.16999999999996,116.14869999999999,376.91700000000003,119.5945Q378.664,123.0403,378.664,127.96979999999999L378.664,154L369.03999999999996,154L369.03999999999996,129.4639Q369.03999999999996,125.3697,366.908,123.0369Q364.777,120.70400000000001,361.049,120.70400000000001Q358.529,120.70400000000001,356.56600000000003,121.8101Q354.60400000000004,122.9161,353.48699999999997,124.9892Q352.37,127.0618,352.37,130.0349Z" fill="#5E0000" fill-opacity="1"/></g><g><path d="M6.70998,99.3372C6.69549,99.3223,6.68513,99.3036,6.67989,99.2831C6.67464,99.2626,6.67467,99.2411,6.67999,99.2206C6.68531,99.2001,6.69572,99.1805,6.71027,99.1656C6.72481,99.1506,6.743,99.1385,6.76311,99.1329C7.83155,98.7943,8.73472,98.5395,9.47256,98.3688C10.8638,98.0497,12.3759,97.6616,14.0091,97.2044C19.5166,95.6603,24.7535,93.2775,29.72,90.0543C31.0954,89.1628,32.8781,87.8613,31.9159,86.0812C31.5539,85.4156,30.9517,84.9659,30.1096,84.7321C23.6959,82.9462,17.0196,80.6134,11.7423,76.5127C8.19854,73.763,5.33752,70.4733,3.15931,66.644C2.04954,64.6965,1.0047,62.5678,0.0247962,60.2579C-0.000501437,60.1973,-0.00662563,60.1301,0.00726792,60.0657C0.0211615,60.0014,0.0543842,59.943,0.102349,59.8987C0.150314,59.8542,0.21065,59.8261,0.275011,59.818C0.339372,59.81,0.404579,59.8225,0.461619,59.8538C7.33669,63.598,14.5748,65.9991,22.1759,67.057C26.2609,67.6256,30.3152,67.5087,34.3391,66.7064C34.471,66.6805,34.8616,66.4973,35.5109,66.1566C35.6046,66.1074,35.6885,66.0431,35.7588,65.9664C36.5006,65.1462,36.7614,64.2706,36.5409,63.3395C36.4484,62.9473,35.925,62.1756,34.9708,61.0247C28.9467,53.771,24.1417,47.3047,20.6884,39.4329C20.6234,39.2843,20.6185,39.1535,20.6736,39.0406C20.708,38.9711,20.7677,38.9176,20.8402,38.8911C20.9126,38.8645,20.9925,38.867,21.0632,38.898C28.2117,42.0539,35.4016,44.8204,42.9812,46.3836C44.2473,46.6421,45.2568,46.7015,46.5111,46.8887C46.9322,46.9521,47.6347,46.8679,48.6185,46.6361C48.712,46.6125,48.8003,46.5701,48.8783,46.5113C49.7382,45.8476,49.9457,45.0294,49.501,44.0568C47.1969,39.0228,45.5962,33.9532,44.6989,28.848C44.3565,26.9066,44.1804,24.7947,44.1707,22.5126C44.1568,19.2141,44.1913,17.0904,44.2739,16.1415C44.2838,16.0424,44.3103,15.9582,44.3537,15.8889C44.3987,15.8163,44.4605,15.7558,44.5338,15.7125C44.607,15.6691,44.6896,15.6442,44.7745,15.6398C44.8593,15.6354,44.9441,15.6517,45.0213,15.6873C45.0986,15.7229,45.1662,15.7768,45.2184,15.8443C47.4026,18.6633,49.7608,21.2179,52.2932,23.5081C55.4808,26.3905,58.7659,28.9996,62.1483,31.3353C62.3844,31.4958,62.6668,31.6622,62.9954,31.8345C64.1288,32.4229,64.9552,32.9607,66.2804,32.5329C68.1664,31.9236,67.8152,29.686,67.8506,27.9179C67.8624,27.2938,67.9146,26.6025,68.007,25.8437C68.1645,24.5561,68.3071,23.2654,68.435,21.9717C68.5501,20.8099,68.8069,19.8411,69.0431,18.5633C69.7455,14.7517,71.0107,10.8322,72.8387,6.80464C73.305,5.77845,73.8285,4.81367,74.4089,3.9103C74.4411,3.85985,74.4853,3.8183,74.5375,3.78943C74.5896,3.76055,74.6481,3.74528,74.7077,3.74498C74.7672,3.74469,74.8259,3.75939,74.8783,3.78774C74.9309,3.81609,74.9754,3.8572,75.0081,3.90733C75.1418,4.11138,75.2412,4.33425,75.3061,4.57594C76.8144,10.2606,79.1431,15.8353,81.7641,21.11C83.226,24.0539,84.1066,25.7902,84.4057,26.3193C85.5273,28.3043,87.3159,29.1274,88.7769,26.7887C88.891,26.6064,90.1837,24.4164,92.6552,20.2185C95.3492,15.6461,98.5303,11.6454,102.2,8.21616C105.496,5.13559,109.458,2.80486,114.083,1.22396C114.957,0.926802,116.105,0.766335,116.784,0.48106C117.02,0.401978,117.26,0.344299,117.504,0.308707L119.505,0.00263119C119.543,-0.00297706,119.581,0.000408946,119.617,0.0125115C119.653,0.024614,119.686,0.0450914,119.713,0.0722919C119.739,0.0994921,119.759,0.132651,119.771,0.169077C119.783,0.205503,119.785,0.244175,119.78,0.281963L119.741,0.528607C119.724,0.625843,119.67,0.71227,119.59,0.769307C119.299,0.97336,118.951,1.28933,118.546,1.71725C113.605,6.94728,110.146,12.9698,108.169,19.7846C107.456,22.2452,107.012,24.1905,106.834,25.6209C106.619,27.3702,106.507,28.4568,106.495,28.8808C106.46,30.0664,106.586,31.3293,107.457,32.0871C109.072,33.4926,110.541,32.6487,111.893,31.4898C114.64,29.1284,116.396,27.6287,117.162,26.9908C122.017,22.9346,127.642,19.6331,133.788,17.7788C134.16,17.6659,134.721,17.5381,135.473,17.3955C135.977,17.2984,136.536,17.1548,137.152,16.9645C137.2,16.9495,137.253,16.9475,137.302,16.9587C137.352,16.9699,137.397,16.9939,137.436,17.0285C137.473,17.063,137.501,17.1067,137.516,17.1555C137.532,17.2042,137.535,17.2562,137.524,17.3063C137.492,17.4549,137.428,17.5946,137.33,17.7253C135.266,20.4394,133.631,22.9019,132.426,25.1127C129.89,29.7722,127.911,34.2901,126.489,38.6662C126.193,39.5736,125.941,40.4176,125.733,41.1981C125.672,41.4298,125.645,42.1312,125.653,43.302C125.655,43.4271,125.685,43.551,125.742,43.6645C126.527,45.2068,128.083,45.0463,129.479,44.5827C134.1,43.0493,138.894,41.4595,143.457,40.7731C144.165,40.6682,145.36,40.5116,147.043,40.3036C148.188,40.161,149.25,40.0936,150.231,40.1016C152.255,40.1134,154.734,40.048,157.024,40.3541C157.098,40.3638,157.166,40.3943,157.221,40.442C157.277,40.4898,157.318,40.5527,157.339,40.6233C157.361,40.6938,157.361,40.769,157.341,40.8398C157.321,40.9107,157.281,40.9742,157.225,41.0227C155.279,42.7126,153.393,44.4054,151.567,46.1012C146.965,50.3843,142.782,54.8358,139.017,59.4557C138.719,59.8211,138.545,60.1331,138.247,60.6116C138.202,60.6845,138.169,60.7626,138.147,60.8434C137.879,61.8339,138.126,62.6164,138.888,63.191C139.459,63.6228,140.001,63.8467,140.517,63.8626C142.727,63.9338,145.485,63.9487,148.013,63.6248C149.454,63.4406,150.69,63.2861,151.721,63.1612C153.309,62.969,156.133,62.3886,160.194,61.4199C160.515,61.3426,160.867,61.2326,161.251,61.09C161.812,60.882,162.325,60.9147,162.816,60.7037C163.294,60.4957,163.754,60.362,164.197,60.3025C164.968,60.1985,165.487,59.7885,166.331,59.6993C166.387,59.6931,166.443,59.703,166.494,59.7278C166.545,59.7526,166.587,59.7915,166.617,59.8396C166.647,59.8878,166.662,59.9434,166.662,60.0002C166.661,60.0568,166.645,60.1122,166.614,60.1599C164.097,64.0883,161.113,68.1328,157.81,71.2292C155.328,73.5569,152.547,75.6697,149.463,77.5676C147.914,78.5224,146.147,79.5625,144.162,80.6878C143.196,81.2365,142.809,82.0101,143.002,83.0086C143.256,84.3161,145.162,85.2522,146.406,85.4364C147.568,85.6087,148.518,85.8257,149.575,85.8554C153.282,85.9624,155.99,85.9287,157.698,85.7544C160.337,85.4849,163.902,84.7549,168.394,83.5643C168.487,83.5386,168.672,83.5068,168.949,83.4692C169.551,83.383,170.153,83.0086,170.738,82.9224C170.781,82.9164,170.824,82.9226,170.864,82.9404C170.903,82.9584,170.938,82.9871,170.961,83.0233C170.985,83.0598,170.999,83.1021,171,83.1458C171.001,83.1894,170.99,83.2325,170.967,83.2701C167.925,88.2832,163.639,92.8892,158.462,95.7452C155.269,97.5104,151.91,98.7466,148.368,99.6908C147.788,99.8457,146.923,100.059,145.776,100.333C143.673,100.837,142.407,101.192,141.978,101.4C140.765,101.988,140.449,102.945,141.025,104.271C141.174,104.613,141.621,105.085,142.368,105.688C145.437,108.162,148.194,110.721,150.638,113.364C154.104,117.113,156.742,121.282,158.548,125.868C159.099,127.264,159.475,128.495,159.679,129.559C159.687,129.604,159.685,129.651,159.671,129.695C159.658,129.739,159.635,129.779,159.602,129.812C159.57,129.845,159.531,129.869,159.486,129.884C159.443,129.898,159.396,129.902,159.351,129.894L159.005,129.839C158.972,129.832,158.941,129.819,158.914,129.799C158.075,129.198,156.839,128.517,155.207,127.761C150.016,125.352,144.702,123.522,139.265,122.273C138.841,122.176,137.723,121.971,135.912,121.657C134.818,121.467,134.012,121.488,132.76,121.476C131.464,121.462,130.743,122.067,130.6,123.289C130.583,123.435,130.6,123.583,130.653,123.72C130.928,124.429,131.36,125.35,131.949,126.483C134.271,130.95,135.812,135.945,136.638,140.875C136.8,141.834,136.891,142.607,136.911,143.195C136.949,144.355,137.158,145.208,137.175,146.298C137.189,147.33,137.194,148.488,137.187,149.772C137.182,151.222,136.916,152.678,136.871,154.205C136.864,154.439,136.83,154.669,136.768,154.892C136.459,156.018,136.344,157.154,136.057,158.069C135.815,158.851,135.657,159.402,135.582,159.72C135.555,159.84,135.525,159.911,135.493,159.935C135.437,159.974,135.372,160.001,135.304,160.014C135.236,160.026,135.166,160.024,135.098,160.008C135.031,159.991,134.968,159.96,134.914,159.918C134.859,159.875,134.815,159.821,134.782,159.759C134.198,158.642,133.519,157.47,132.745,156.244C130.062,151.992,127.072,148.026,123.776,144.346C121.598,141.915,119.08,139.516,116.793,137.831C115.429,136.83,113.537,135.451,112.353,137.226C111.968,137.802,111.781,138.538,111.793,139.433C111.811,141.038,111.905,143.701,111.645,145.78C111.555,146.518,111.496,147.491,111.468,148.699C111.468,148.723,111.466,148.746,111.462,148.771L110.795,152.913C110.789,152.944,110.781,152.975,110.772,153.005C110.494,153.831,110.376,154.853,110.172,155.647C109.01,160.181,107.277,164.434,104.974,168.404C104.949,168.449,104.91,168.485,104.864,168.507C104.817,168.53,104.764,168.537,104.713,168.529C104.662,168.52,104.615,168.497,104.578,168.461C104.54,168.424,104.515,168.378,104.505,168.326C103.002,161.244,100.39,154.602,96.6689,148.398C95.7349,146.844,94.7637,145.472,93.7563,144.283C93.4673,143.942,93.1169,143.608,92.7054,143.279C91.7963,142.557,90.2615,142.553,89.7125,143.721C89.5531,144.056,89.3721,144.624,89.1695,145.427C88.5466,147.896,87.7084,150.342,86.9086,152.538C85.5509,156.261,83.8223,159.846,81.7227,163.296C78.4142,168.73,73.8009,173.913,68.5324,177.301C66.2853,178.745,63.8474,179.971,61.2186,180.979C61.1593,181.003,61.0942,181.006,61.0328,180.99C60.9715,180.973,60.917,180.936,60.8774,180.886C60.8379,180.837,60.8153,180.775,60.813,180.711C60.8106,180.647,60.8287,180.584,60.8644,180.531C62.6628,177.88,64.2202,175.116,65.5367,172.237C67.7739,167.342,69.2801,162.213,70.0554,156.85C70.2354,155.605,70.1616,154.446,70.3712,153.255C70.6015,151.947,70.4244,149.9,70.4864,149.207C70.5237,148.763,70.4804,147.892,70.3565,146.592C70.2758,145.728,70.2139,144.671,70.1705,143.421C70.1646,143.247,70.1419,143.074,70.1026,142.904C70.0357,142.607,69.9807,142.262,69.9374,141.87C69.8282,140.86,69.3913,140.23,68.5531,139.6C67.1865,138.572,66.121,139.112,65.0201,140.248C64.6895,140.59,63.0663,142.069,60.1502,144.684C55.3156,149.02,50.2242,152.369,44.1647,154.521C42.7421,155.025,41.7278,155.324,41.1217,155.415C40.9887,155.434,40.8593,155.474,40.738,155.534C40.3326,155.734,39.8663,155.868,39.339,155.935C39.2891,155.941,39.2385,155.932,39.1933,155.91C39.148,155.888,39.1099,155.854,39.0833,155.811C39.0568,155.767,39.0428,155.718,39.0432,155.667C39.0434,155.617,39.0581,155.568,39.0852,155.525C43.7781,148.333,47.376,140.34,49.327,131.939C49.5473,130.993,49.7264,130.025,49.8641,129.039C50.0825,127.489,49.503,126.504,48.1257,126.082C47.9047,126.016,47.6717,126.005,47.4468,126.05L46.1304,126.32C46.0931,126.328,46.0575,126.339,46.0242,126.353C42.7952,127.676,39.463,128.761,36.0274,129.606C34.5201,129.977,32.7453,130.304,30.7028,130.587C26.8718,131.119,22.9837,131.173,19.0384,130.744C18.971,130.737,18.9071,130.709,18.8548,130.666C18.8024,130.622,18.7638,130.564,18.7437,130.499C18.7236,130.434,18.7229,130.365,18.7418,130.299C18.7605,130.234,18.798,130.176,18.8496,130.132C25.3488,124.555,31.367,118.297,36.2871,111.378C37.5887,109.548,36.8627,108.499,35.1714,107.418C35.0776,107.358,34.975,107.314,34.8674,107.286C33.3976,106.922,31.7536,106.995,30.4549,106.784C30.3369,106.765,29.3452,106.696,27.4798,106.576C25.6203,106.456,23.2759,106.07,20.4463,105.418C15.5645,104.294,11.1058,102.368,7.07006,99.6377C6.91855,99.535,6.79852,99.4342,6.70998,99.3372ZM72.6409,45.0671C72.4147,45.6357,72.3015,45.9873,72.3015,46.122C72.3035,62.0439,72.2996,72.9052,72.2897,78.7058C72.2878,78.8019,72.3048,78.8968,72.3399,78.985C72.8387,80.2806,74.2288,80.7621,75.5836,80.4501C78.9031,79.6814,81.8979,78.4304,84.568,76.6969C87.2932,74.9278,89.8021,72.8021,92.0944,70.3199C98.0601,63.8536,102.167,56.375,104.414,47.8842C104.477,47.6385,104.483,47.0957,104.432,46.2557C104.424,46.1329,104.386,46.0144,104.323,45.911C103.667,44.8561,102.593,44.2945,101.454,43.8695C98.2562,42.6809,94.7209,41.9409,90.8488,41.6498C87.4605,41.3942,83.596,41.6884,79.2553,42.5323C78.6237,42.6541,78.1102,42.9097,77.5611,42.9869C76.4425,43.1474,75.7814,43.4267,74.4266,43.8279C73.9662,43.9646,73.43,44.2954,72.8181,44.8204C72.7405,44.8869,72.6798,44.9714,72.6409,45.0671ZM92.8057,87.249C93.6029,88.0366,94.4412,88.5953,95.3204,89.243C100.028,92.7178,104.185,96.6661,107.797,101.088C111.114,105.153,114.34,109.768,116.851,114.222C117.013,114.508,117.234,114.777,117.516,115.031C117.632,115.134,117.772,115.204,117.924,115.234C118.075,115.265,118.232,115.256,118.377,115.206C119.564,114.802,120.157,113.833,121.028,112.639C125.255,106.869,127.965,100.497,129.157,93.5191C129.21,93.2062,129.367,91.5213,129.629,88.4645C129.777,86.7429,129.78,85.06,129.637,83.4157C129.437,81.084,129.262,79.41,129.112,78.3937C127.965,70.617,124.679,63.2385,119.396,57.4111C118.236,56.1304,117.129,56.1512,116.291,57.741C114.995,60.1995,113.698,62.4926,112.404,64.6203C110.674,67.4631,108.71,70.2841,106.512,73.0835C105.304,74.6208,103.906,76.1977,102.316,77.8142C99.0926,81.0978,96.8612,83.2107,93.6354,85.4661C93.2749,85.7158,92.9765,85.9951,92.7408,86.3041C92.6351,86.442,92.5834,86.6142,92.5954,86.7882C92.6073,86.9623,92.6821,87.1263,92.8057,87.249ZM57.1219,115.194C57.7417,115.078,58.1874,114.859,58.4589,114.54C58.632,114.336,58.7187,113.853,58.7187,113.09C58.6812,83.3345,58.6793,65.2958,58.7127,58.9743C58.7167,58.2472,58.5878,57.7687,58.3261,57.5389C57.3364,56.6672,56.4096,56.6702,55.5458,57.5479C54.6663,58.4433,53.4837,60.0391,51.998,62.3352C51.7462,62.7214,51.3595,63.3732,50.8381,64.2904C50.4367,64.9997,50.0835,65.6722,49.7785,66.3082C48.165,69.672,46.9755,73.1855,46.2101,76.8484C46.0881,77.4309,46.0055,77.9667,45.9622,78.4561C45.9032,79.096,45.8205,79.6338,45.7142,80.0697C45.6946,80.1549,45.6071,80.9562,45.4516,82.4737C45.3847,83.1156,45.3748,84.9926,45.422,88.1049C45.4486,90.0038,45.8117,92.3335,46.1423,94.4847C47.2461,101.659,50.8293,108.49,55.4188,114.112C55.9364,114.746,56.4096,115.107,56.8385,115.194C56.9322,115.212,57.0283,115.212,57.1219,115.194ZM72.7118,95.219C72.5111,95.7676,72.4078,96.2173,72.4019,96.5681C72.3173,102.321,72.2838,111.555,72.3015,124.27C72.3015,125.11,72.4343,126.221,73.1515,126.712C73.9701,127.277,74.8723,127.682,75.8581,127.931C79.4531,128.839,82.9525,129.368,86.3566,129.518C87.7557,129.576,89.8729,129.487,92.7083,129.247C94.1401,129.125,95.2851,128.807,96.6986,128.585C97.8993,128.398,100.156,127.745,103.47,126.626C103.666,126.561,103.966,126.395,104.369,126.13C105.875,125.146,105.541,123.417,104.878,121.972C104.263,120.636,103.725,119.494,103.263,118.549C101.323,114.591,98.9002,110.913,95.996,107.516C91.4805,102.232,86.0998,98.3744,79.8544,95.944C78.3108,95.344,76.168,94.7255,74.4178,94.5202C74.036,94.4754,73.549,94.6126,72.9567,94.9335C72.8427,94.9951,72.7553,95.0968,72.7118,95.219Z" fill="url(#master_svg0_139_05180)" fill-opacity="1" style="mix-blend-mode:passthrough"/></g></g></svg>