<svg xmlns="http://www.w3.org/2000/svg" xmlns:xlink="http://www.w3.org/1999/xlink" fill="none" version="1.1" width="1288" height="1388" viewBox="0 0 1288 1388"><defs><clipPath id="master_svg0_96_9834"><rect x="0" y="0" width="1288" height="1358" rx="0"/></clipPath><radialGradient cx="0" cy="0" r="1" gradientUnits="userSpaceOnUse" id="master_svg1_96_9964" gradientTransform="translate(643.999991178458 679.0000225303011) rotate(90) scale(679.0000225303011 643.9999527929643)"><stop offset="40.00000059604645%" stop-color="#DB0000" stop-opacity="1"/><stop offset="100%" stop-color="#FFC800" stop-opacity="1"/></radialGradient><linearGradient x1="0.48889172077178955" y1="-0.06577623635530472" x2="0.5148930656271665" y2="0.9996365354860008" id="master_svg2_96_01081"><stop offset="8.412650227546692%" stop-color="#FFFFFF" stop-opacity="0"/><stop offset="62.6983642578125%" stop-color="#FFFFFF" stop-opacity="1"/></linearGradient></defs><g><g clip-path="url(#master_svg0_96_9834)"><g><path d="M50.5407,745.304C50.4316,745.192,50.3535,745.052,50.314,744.898C50.2745,744.744,50.2748,744.583,50.3148,744.429C50.3549,744.275,50.4333,744.128,50.5429,744.016C50.6524,743.904,50.7894,743.813,50.9409,743.771C58.9886,741.23,65.7914,739.319,71.3489,738.038C81.8279,735.644,93.2176,732.732,105.519,729.302C147.002,717.717,186.448,699.839,223.856,675.656C234.216,668.968,247.643,659.203,240.396,645.847C237.669,640.853,233.134,637.48,226.79,635.725C178.482,622.326,128.194,604.824,88.445,574.057C61.7527,553.426,40.2031,528.745,23.7964,500.014C15.4374,485.403,7.56756,469.432,0.186769,452.101C-0.00377691,451.646,-0.0499054,451.142,0.0547432,450.659C0.159392,450.176,0.409631,449.738,0.77091,449.406C1.13219,449.072,1.58665,448.861,2.07143,448.801C2.5562,448.741,3.04736,448.834,3.47699,449.069C55.2612,477.161,109.78,495.176,167.033,503.113C197.801,507.379,228.339,506.502,258.648,500.483C259.641,500.289,262.583,498.914,267.474,496.357C268.18,495.989,268.812,495.505,269.341,494.931C274.928,488.777,276.893,482.208,275.232,475.222C274.536,472.279,270.593,466.489,263.406,457.854C218.031,403.431,181.839,354.916,155.828,295.856C155.339,294.741,155.302,293.76,155.717,292.913C155.976,292.391,156.426,291.99,156.971,291.791C157.518,291.591,158.119,291.61,158.651,291.843C212.495,315.521,266.651,336.277,323.742,348.005C333.278,349.945,340.882,350.391,350.33,351.795C353.501,352.271,358.793,351.639,366.203,349.9C366.907,349.723,367.572,349.405,368.159,348.963C374.637,343.984,376.2,337.845,372.85,330.548C355.495,292.779,343.438,254.743,336.68,216.44C334.101,201.874,332.774,186.029,332.701,168.906C332.597,144.159,332.856,128.225,333.479,121.106C333.553,120.362,333.753,119.731,334.079,119.211C334.419,118.666,334.884,118.212,335.436,117.887C335.987,117.562,336.61,117.375,337.249,117.342C337.888,117.309,338.526,117.431,339.108,117.698C339.69,117.965,340.199,118.369,340.593,118.876C357.044,140.027,374.807,159.193,393.881,176.376C417.891,198.002,442.635,217.578,468.112,235.101C469.89,236.305,472.017,237.554,474.492,238.847C483.029,243.261,489.254,247.297,499.235,244.087C513.441,239.516,510.796,222.727,511.062,209.462C511.151,204.779,511.544,199.592,512.24,193.899C513.426,184.239,514.501,174.555,515.464,164.849C516.331,156.132,518.265,148.863,520.044,139.276C525.335,110.678,534.864,81.2714,548.633,51.0537C552.146,43.3544,556.088,36.1159,560.461,29.3381C560.703,28.9596,561.035,28.6478,561.429,28.4312C561.821,28.2146,562.262,28.1,562.711,28.0977C563.159,28.0956,563.602,28.2058,563.996,28.4185C564.392,28.6313,564.727,28.9397,564.974,29.3158C565.981,30.8467,566.73,32.5188,567.218,34.3322C578.579,76.9832,596.119,118.809,615.861,158.383C626.872,180.471,633.505,193.498,635.758,197.467C644.206,212.36,657.678,218.536,668.683,200.99C669.542,199.622,679.279,183.191,697.894,151.695C718.186,117.389,742.147,87.3726,769.79,61.644C794.612,38.5312,824.453,21.0442,859.292,9.18309C865.872,6.95358,874.524,5.74963,879.634,3.60928C881.412,3.01595,883.225,2.5832,885.059,2.31615L900.13,0.0197412C900.417,-0.0223362,900.704,0.00306823,900.977,0.0938707C901.25,0.184673,901.495,0.33831,901.698,0.542389C901.894,0.746466,902.048,0.995246,902.132,1.26855C902.223,1.54184,902.244,1.83199,902.202,2.1155L901.908,3.96602C901.782,4.69556,901.376,5.344,900.774,5.77193C898.583,7.30289,895.958,9.67358,892.906,12.8841C855.694,52.1238,829.64,97.3091,814.744,148.439C809.375,166.9,806.029,181.496,804.692,192.228C803.075,205.352,802.228,213.505,802.137,216.686C801.871,225.581,802.823,235.057,809.382,240.742C821.548,251.287,832.615,244.956,842.8,236.261C863.485,218.543,876.715,207.292,882.483,202.506C919.051,172.073,961.422,147.302,1007.71,133.39C1010.51,132.543,1014.74,131.585,1020.4,130.514C1024.2,129.786,1028.41,128.708,1033.05,127.281C1033.42,127.168,1033.81,127.153,1034.18,127.237C1034.56,127.321,1034.9,127.502,1035.19,127.76C1035.47,128.02,1035.68,128.348,1035.8,128.714C1035.92,129.079,1035.94,129.469,1035.85,129.845C1035.61,130.96,1035.13,132.008,1034.39,132.989C1018.84,153.352,1006.53,171.828,997.458,188.415C978.355,223.374,963.445,257.27,952.735,290.104C950.509,296.911,948.612,303.243,947.044,309.1C946.582,310.839,946.379,316.1,946.442,324.885C946.456,325.823,946.68,326.753,947.107,327.604C953.022,339.176,964.74,337.972,975.254,334.494C1010.06,322.989,1046.17,311.061,1080.54,305.911C1085.88,305.124,1094.88,303.949,1107.55,302.389C1116.18,301.319,1124.18,300.813,1131.56,300.873C1146.81,300.962,1165.49,300.471,1182.73,302.768C1183.29,302.84,1183.8,303.069,1184.22,303.427C1184.64,303.785,1184.95,304.257,1185.11,304.787C1185.27,305.316,1185.27,305.88,1185.12,306.412C1184.97,306.944,1184.67,307.42,1184.25,307.784C1169.59,320.463,1155.38,333.164,1141.63,345.887C1106.97,378.022,1075.46,411.42,1047.1,446.082C1044.85,448.824,1043.55,451.165,1041.3,454.754C1040.96,455.302,1040.71,455.888,1040.54,456.494C1038.53,463.925,1040.39,469.797,1046.13,474.107C1050.43,477.347,1054.52,479.027,1058.4,479.146C1075.05,479.681,1095.81,479.792,1114.86,477.362C1125.71,475.98,1135.02,474.82,1142.79,473.884C1154.75,472.442,1176.02,468.087,1206.61,460.819C1209.03,460.24,1211.68,459.414,1214.57,458.344C1218.8,456.784,1222.66,457.029,1226.36,455.446C1229.96,453.885,1233.42,452.882,1236.76,452.436C1242.56,451.655,1246.48,448.579,1252.83,447.91C1253.25,447.863,1253.68,447.938,1254.06,448.124C1254.44,448.31,1254.76,448.601,1254.99,448.963C1255.21,449.324,1255.32,449.742,1255.32,450.167C1255.32,450.592,1255.2,451.008,1254.97,451.366C1236,480.84,1213.53,511.184,1188.65,534.416C1169.96,551.88,1149.01,567.732,1125.78,581.972C1114.11,589.135,1100.81,596.939,1085.85,605.382C1078.57,609.498,1075.66,615.303,1077.12,622.794C1079.03,632.604,1093.39,639.627,1102.75,641.01C1111.51,642.302,1118.66,643.93,1126.62,644.153C1154.55,644.955,1174.94,644.703,1187.81,643.395C1207.68,641.374,1234.53,635.896,1268.37,626.963C1269.07,626.77,1270.46,626.532,1272.55,626.25C1277.09,625.603,1281.62,622.794,1286.03,622.147C1286.35,622.102,1286.68,622.149,1286.98,622.283C1287.27,622.417,1287.53,622.633,1287.71,622.905C1287.89,623.178,1287.99,623.496,1288,623.823C1288.01,624.151,1287.92,624.474,1287.76,624.756C1264.84,662.368,1232.56,696.926,1193.56,718.354C1169.51,731.598,1144.21,740.873,1117.54,747.957C1113.16,749.119,1106.65,750.722,1098.01,752.773C1082.17,756.553,1072.63,759.22,1069.4,760.781C1060.27,765.191,1057.88,772.373,1062.22,782.32C1063.35,784.889,1066.72,788.431,1072.34,792.953C1095.46,811.517,1116.22,830.711,1134.63,850.542C1160.74,878.675,1180.61,909.951,1194.21,944.356C1198.36,954.835,1201.19,964.068,1202.73,972.048C1202.79,972.391,1202.77,972.741,1202.67,973.07C1202.57,973.399,1202.4,973.7,1202.15,973.952C1201.91,974.197,1201.61,974.379,1201.28,974.491C1200.95,974.596,1200.6,974.624,1200.26,974.568L1197.65,974.148C1197.41,974.099,1197.17,974.001,1196.96,973.854C1190.65,969.339,1181.34,964.236,1169.04,958.559C1129.95,940.485,1089.92,926.758,1048.97,917.385C1045.77,916.657,1037.35,915.117,1023.71,912.765C1015.47,911.337,1009.4,911.498,999.971,911.407C990.206,911.302,984.781,915.838,983.703,925.008C983.57,926.107,983.703,927.213,984.102,928.242C986.174,933.562,989.429,940.471,993.86,948.976C1011.35,982.485,1022.96,1019.96,1029.18,1056.95C1030.4,1064.15,1031.09,1069.95,1031.23,1074.36C1031.52,1083.06,1033.1,1089.46,1033.23,1097.64C1033.33,1105.38,1033.37,1114.07,1033.32,1123.7C1033.28,1134.58,1031.28,1145.51,1030.94,1156.97C1030.88,1158.72,1030.62,1160.45,1030.16,1162.12C1027.83,1170.57,1026.96,1179.09,1024.81,1185.95C1022.98,1191.82,1021.79,1195.96,1021.23,1198.34C1021.02,1199.24,1020.8,1199.77,1020.56,1199.95C1020.13,1200.25,1019.64,1200.45,1019.13,1200.55C1018.62,1200.64,1018.09,1200.63,1017.58,1200.5C1017.08,1200.37,1016.6,1200.14,1016.2,1199.83C1015.78,1199.51,1015.45,1199.1,1015.2,1198.64C1010.8,1190.25,1005.69,1181.46,999.859,1172.26C979.65,1140.36,957.124,1110.61,932.302,1082.99C915.894,1064.76,896.931,1046.76,879.704,1034.12C869.428,1026.61,855.183,1016.26,846.265,1029.57C843.36,1033.9,841.953,1039.42,842.044,1046.14C842.177,1058.18,842.884,1078.15,840.931,1093.76C840.252,1099.29,839.804,1106.59,839.594,1115.65C839.594,1115.83,839.58,1116.01,839.552,1116.19L834.526,1147.27C834.484,1147.5,834.421,1147.73,834.351,1147.96C832.258,1154.16,831.369,1161.83,829.836,1167.78C821.079,1201.8,808.031,1233.71,790.685,1263.49C790.496,1263.84,790.202,1264.1,789.852,1264.27C789.502,1264.44,789.103,1264.49,788.718,1264.43C788.333,1264.37,787.976,1264.19,787.696,1263.92C787.416,1263.65,787.227,1263.3,787.15,1262.91C775.831,1209.78,756.154,1159.94,728.126,1113.4C721.091,1101.74,713.776,1091.44,706.188,1082.52C704.011,1079.97,701.372,1077.45,698.272,1074.99C691.425,1069.57,679.865,1069.54,675.73,1078.31C674.529,1080.82,673.165,1085.08,671.639,1091.1C666.948,1109.63,660.635,1127.98,654.61,1144.46C644.384,1172.39,631.364,1199.29,615.549,1225.17C590.629,1265.94,555.881,1304.83,516.198,1330.25C499.272,1341.08,480.909,1350.28,461.109,1357.85C460.662,1358.02,460.172,1358.05,459.71,1357.92C459.248,1357.8,458.837,1357.52,458.539,1357.15C458.241,1356.78,458.071,1356.31,458.053,1355.83C458.036,1355.35,458.172,1354.88,458.441,1354.48C471.987,1334.59,483.717,1313.85,493.633,1292.26C510.484,1255.53,521.83,1217.05,527.669,1176.81C529.025,1167.47,528.469,1158.77,530.048,1149.83C531.782,1140.02,530.448,1124.66,530.915,1119.47C531.196,1116.14,530.87,1109.6,529.937,1099.85C529.329,1093.37,528.863,1085.43,528.536,1076.05C528.492,1074.75,528.321,1073.45,528.025,1072.18C527.521,1069.95,527.106,1067.36,526.78,1064.42C525.958,1056.84,522.667,1052.11,516.354,1047.39C506.06,1039.67,498.035,1043.73,489.742,1052.25C487.252,1054.82,475.026,1065.91,453.061,1085.53C416.646,1118.06,378.297,1143.19,332.656,1159.33C321.94,1163.12,314.301,1165.36,309.735,1166.04C308.734,1166.19,307.759,1166.49,306.846,1166.94C303.792,1168.43,300.28,1169.44,296.308,1169.95C295.932,1169.99,295.551,1169.92,295.21,1169.76C294.869,1169.59,294.582,1169.34,294.382,1169.01C294.182,1168.69,294.077,1168.31,294.08,1167.94C294.082,1167.56,294.192,1167.19,294.396,1166.87C329.744,1112.91,356.844,1052.94,371.539,989.905C373.199,982.807,374.548,975.548,375.585,968.149C377.23,956.522,372.865,949.13,362.491,945.966C360.826,945.469,359.071,945.385,357.377,945.721L347.462,947.751C347.181,947.807,346.913,947.891,346.662,947.996C322.341,957.922,297.242,966.063,271.364,972.405C260.012,975.184,246.643,977.641,231.259,979.762C202.403,983.759,173.117,984.158,143.401,980.945C142.893,980.889,142.411,980.679,142.017,980.357C141.623,980.028,141.332,979.594,141.181,979.104C141.029,978.614,141.024,978.096,141.166,977.606C141.308,977.116,141.59,976.682,141.978,976.353C190.931,934.507,236.261,887.551,273.321,835.646C283.125,821.912,277.656,814.044,264.917,805.931C264.21,805.483,263.437,805.154,262.627,804.944C251.556,802.207,239.173,802.76,229.391,801.178C228.502,801.031,221.033,800.513,206.982,799.617C192.977,798.714,175.318,795.816,154.005,790.923C117.235,782.495,83.6507,768.04,53.2529,747.558C52.1117,746.788,51.2076,746.032,50.5407,745.304ZM547.144,338.128C545.439,342.394,544.587,345.032,544.587,346.043C544.602,465.501,544.573,546.991,544.498,590.511C544.484,591.232,544.612,591.945,544.877,592.606C548.633,602.327,559.104,605.939,569.309,603.598C594.311,597.831,616.869,588.445,636.98,575.439C657.507,562.166,676.404,546.217,693.671,527.594C738.605,479.079,769.538,422.969,786.464,359.264C786.94,357.421,786.982,353.348,786.597,347.046C786.541,346.124,786.254,345.235,785.778,344.46C780.836,336.545,772.744,332.331,764.169,329.143C740.082,320.225,713.454,314.673,684.289,312.488C658.767,310.571,629.659,312.778,596.964,319.11C592.207,320.024,588.339,321.941,584.203,322.521C575.778,323.725,570.798,325.821,560.594,328.831C557.126,329.856,553.087,332.338,548.478,336.277C547.893,336.776,547.436,337.41,547.144,338.128ZM699.028,654.609C705.033,660.518,711.347,664.71,717.969,669.57C753.424,695.64,784.742,725.263,811.944,758.436C836.927,788.942,861.231,823.564,880.145,856.982C881.363,859.124,883.029,861.147,885.15,863.051C886.025,863.821,887.082,864.346,888.223,864.577C889.364,864.808,890.54,864.738,891.639,864.367C900.578,861.329,905.044,854.063,911.603,845.103C943.439,801.815,963.851,754.005,972.832,701.652C973.231,699.304,974.414,686.663,976.388,663.728C977.501,650.812,977.522,638.185,976.451,625.848C974.939,608.355,973.623,595.794,972.496,588.169C963.851,529.823,939.106,474.464,899.311,430.742C890.575,421.133,882.238,421.289,875.924,433.217C866.159,451.663,856.394,468.868,846.643,484.831C833.616,506.16,818.825,527.325,802.27,548.328C793.17,559.862,782.635,571.694,770.658,583.822C746.382,608.458,729.575,624.31,705.278,641.232C702.562,643.105,700.315,645.201,698.539,647.52C697.743,648.554,697.354,649.846,697.444,651.152C697.534,652.458,698.097,653.688,699.028,654.609ZM430.252,864.276C434.921,863.401,438.277,861.763,440.322,859.369C441.626,857.836,442.279,854.21,442.279,848.491C441.997,625.239,441.982,489.899,442.234,442.47C442.264,437.015,441.293,433.425,439.322,431.701C431.867,425.161,424.887,425.184,418.38,431.768C411.755,438.486,402.848,450.459,391.658,467.686C389.761,470.584,386.849,475.474,382.921,482.356C379.898,487.677,377.237,492.724,374.94,497.495C362.787,522.733,353.828,549.093,348.062,576.576C347.143,580.946,346.521,584.966,346.195,588.638C345.75,593.439,345.128,597.474,344.327,600.744C344.18,601.383,343.52,607.396,342.349,618.781C341.845,623.597,341.771,637.68,342.126,661.03C342.327,675.277,345.061,692.757,347.551,708.897C355.865,762.72,382.854,813.974,417.424,856.156C421.322,860.916,424.887,863.618,428.117,864.276C428.823,864.409,429.547,864.409,430.252,864.276ZM547.677,714.406C546.166,718.522,545.388,721.896,545.343,724.528C544.706,767.69,544.454,836.969,544.587,932.365C544.587,938.672,545.588,947.009,550.99,950.691C557.155,954.926,563.951,957.971,571.376,959.833C598.454,966.651,624.812,970.62,650.453,971.74C660.99,972.181,676.938,971.509,698.295,969.71C709.079,968.793,717.703,966.406,728.35,964.74C737.394,963.34,754.39,958.44,779.352,950.047C780.829,949.557,783.09,948.311,786.128,946.323C797.468,938.938,794.955,925.967,789.957,915.131C785.33,905.1,781.277,896.539,777.791,889.448C763.182,859.747,744.933,832.153,723.058,806.666C689.046,767.025,648.518,738.08,601.477,719.845C589.85,715.344,573.71,710.703,560.527,709.163C557.651,708.827,553.984,709.856,549.522,712.264C548.664,712.726,548.006,713.489,547.677,714.406Z" fill="url(#master_svg1_96_9964)" fill-opacity="1" style="mix-blend-mode:passthrough"/></g><g><ellipse cx="654" cy="847" rx="912" ry="596" fill="url(#master_svg2_96_01081)" fill-opacity="1"/></g></g><g><g><path d="M607.158,363.8659Q606.91,364.138,606.922,364.3746Q606.933,364.6704,607.2760000000001,364.8123Q607.927,365.0726,608.696,364.9661C608.889,364.9451,609.043,364.7961,609.071,364.6038C609.0989999999999,364.4116,608.9929999999999,364.2248,608.814,364.1498Q608.448,363.9842,607.832,364.0552C609.938,364.1261,610.943,362.5881,612.2919999999999,361.8664Q621.329,356.992,630.26,358.2106C643.673,360.0326,653.2660000000001,369.1662,657.927,381.5888Q657.466,383.5409,658.7909999999999,384.9488C659.131,385.3144,659.733,385.2149,659.938,384.7596Q660.198,384.19169999999997,659.8430000000001,384.2035Q673.399,374.8569,688.256,381.3522Q699.99,386.4869,705.952,396.7563Q709.335,402.5772,713.262,412.3023Q724.475,440.0344,735.2629999999999,467.553Q735.63,468.488,736.115,469.517L735.985,469.837C735.947,469.928,735.947,470.034,735.985,470.133C765.746,548.845,792.2180000000001,627.758,812.7529999999999,706.802C812.823,707.033,813.039,707.1890000000001,813.281,707.181C813.523,707.172,813.729,707.002,813.7819999999999,706.7660000000001Q816.432,692.723,821.625,679.318C826.38,667.0260000000001,835.594,656.0699999999999,849.1859999999999,653.94C860.991,652.095,872.003,657.691,876.403,669.025Q878.142,673.509,878.722,684.299Q879.692,702.306,885.05,723.152Q892.573,752.446,901.421,780.687Q914.445,822.2139999999999,930.827,873.407Q934.601,885.203,935.63,892.55Q937.203,903.754,934.731,918.483Q931.667,936.668,926.451,959.242C916.136,1003.927,906.697,1039.752,894.702,1085.136Q890.409,1101.4160000000002,886.706,1113.057C886.524,1113.63,886.729,1114.258,887.215,1114.6190000000001L1040.3139999999999,1229.3809999999999C1040.3429999999998,1229.411,1040.386,1229.4279999999999,1040.432,1229.4279999999999Q1040.8110000000001,1229.452,1041,1229.333Q1040.042,1231.7469999999998,1038.9769999999999,1232.953Q1036.612,1235.663,1028.391,1244.359L881.17,1133.7849999999999C880.665,1133.405,879.936,1133.634,879.739,1134.2350000000001L876.368,1144.646Q870.276,1153.4009999999998,861.133,1146.504Q858.0450000000001,1142.3980000000001,859.725,1137.37Q864.031,1124.451,865.131,1120.5819999999999Q889.462,1034.5230000000001,908.282,954.012Q912.753,934.87,915.06,920.578C917.153,907.634,917.402,895.188,913.758,882.233Q911.144,872.969,909.062,866.569Q892.147,814.654,876.131,761.3779999999999Q869.779,740.2719999999999,867.887,732.262Q862.043,707.7239999999999,859.098,677.508Q858.696,673.379,854.437,671.226Q850.12,670.267,846.619,673.509C840.267,679.389,836.895,689.9780000000001,834.601,698.153Q830.2,713.8530000000001,828.1659999999999,726.015Q825.9780000000001,739.0889999999999,824.582,746.803C824.457,747.528,824.489,748.27,824.6759999999999,748.979Q844.821,825.81,858.53,876.01Q859.855,880.849,860.967,882.493C861.0609999999999,882.634,861.177,882.754,861.31,882.848L876.013,892.94Q880.756,897.424,887.014,902.452Q892.514,906.865,894.643,909.894C898.831,915.821,894.442,923.027,887.321,922.754C881.336,922.53,873.635,915.052,868.786,910.273C868.618,910.109,868.372,910.054,868.151,910.132C867.93,910.21,867.773,910.407,867.745,910.639Q867.709,910.923,867.958,911.775Q874.641,935.153,877.728,954.556C879.656,966.66,866.586,968.836,860.494,960.697C858.033,952.439,856.164,942.725,854.2950000000001,935.627Q834.565,860.736,834.068,858.867Q818.821,802.2080000000001,802.533,740.4490000000001C784.092,670.48,764.598,604.3679999999999,739.06,532.08C726.143,495.51,709.962,454.776,695.921,418.6319Q693.129,411.4386,688.942,404.6121C684.8140000000001,397.8802,675.694,393.3016,669.306,399.8442Q666.361,402.2341,667.437,406.8363Q678.2719999999999,453.321,683.915,477.49199999999996Q696.8430000000001,532.861,709.335,588.325Q725.008,657.904,744.608,766.596Q745.72,772.807,746.607,779.338Q745.779,784.875,740.7629999999999,785.869Q735.299,786.9449999999999,730.1410000000001,782.745Q727.5509999999999,776.1669999999999,726.983,773.198C708.0930000000001,672.858,694.265,605.1610000000001,675.5989999999999,524.615Q660.387,458.976,657.608,447.074Q650.499,416.6088,645.1990000000001,397.7264Q642.727,388.9123,639.8050000000001,384.5229C635.0740000000001,377.3888,628.45,373.4135,619.85,377.6136L618.963,378.075Q615.2370000000001,379.826,613.037,383.33979999999997C612.774,383.7573,612.631,384.2402,612.623,384.7359Q612.5989999999999,386.3804,612.8,388.4627C614.61,407.3687,616.893,423.1396,619.472,446.837Q638.717,623.807,667.414,798.3620000000001Q667.922,801.486,668.0640000000001,804.361Q668.2180000000001,807.319,668.313,810.383Q663.711,815.8720000000001,658.637,815.021Q651.185,813.7660000000001,649.9069999999999,806.3720000000001Q644.691,777.883,640.338,749.3109999999999C636.931,726.9259999999999,633.323,706.518,630.768,686.168Q630.3779999999999,683.0799999999999,625.1379999999999,647.4100000000001C622.0740000000001,626.563,619.981,607.077,616.881,585.1659999999999C613.889,564.083,610.5409999999999,531.098,607.135,504.71500000000003Q606.212,497.60400000000004,603.42,470.961Q598.925,428.1086,592.5260000000001,378.6547C591.059,367.3324,580.035,356.6016,568.384,364.5994L566.9639999999999,365.5577Q560.316,371.0355,560.033,379.5894C557.631,450.777,560.447,517.611,565.769,590.49Q571.92,674.8340000000001,585.216,762.739Q589.439,790.601,596.879,837.488Q597.577,841.889,598.086,846.87Q595.885,851.768,591.13,852.4300000000001Q584.885,853.306,580.768,847.331Q578.509,840.173,576.877,830.283Q565.119,759.13,558.1279999999999,705.8430000000001Q551.67,656.5550000000001,545.708,579.239C544.856,568.177,533.643,559.706,523.162,566.473L520.631,568.745Q517.686,572.744,517.638,577.843Q517.473,598.3340000000001,517.4259999999999,599.636Q514.315,701.501,522.358,802.255Q527.208,863.031,535.736,916.709Q545.933,980.821,562.446,1049.856Q572.169,1090.46,583.8199999999999,1125.87C596.844,1165.3980000000001,618.4069999999999,1201.116,648.9490000000001,1229.594Q664.4449999999999,1244.051,682.602,1258.615Q758.0930000000001,1319.155,832.744,1373.51Q829.4200000000001,1375.14,825.9069999999999,1376.19Q821.317,1377.57,818.88,1378.42Q814.693,1379.88,810.636,1380.63Q746.69,1333.908,685.5,1284.62C684.6859999999999,1283.966,683.492,1284.1219999999998,682.874,1284.963L606.7090000000001,1388L586.446,1383.09L667.698,1272.434C668.1469999999999,1271.8220000000001,668.021,1270.96,667.414,1270.4940000000001Q647.376,1254.9589999999998,629.9169999999999,1237.662Q599.86,1207.9070000000002,581.8679999999999,1170.935Q568.265,1142.978,559.477,1112.5839999999998Q549.351,1077.635,541.071,1042.3429999999998Q530.177,995.906,523.068,956.284Q501.823,837.866,498.961,722.975C497.731,673.828,498.381,634.644,499.28,578.943Q499.375,573.158,498.381,570.33C496.642,565.42,491.698,562.332,486.95500000000004,566.1179999999999C482.61400000000003,569.585,482.661,572.093,481.96299999999997,578.304Q473.08,657.383,469.082,729.789Q467.272,762.6089999999999,467.012,804.8340000000001C466.716,851.318,469.969,898.087,474.724,942.169Q484.553,1033.28,509.216,1128.71Q511.286,1136.72,512.481,1140.7069999999999C513.936,1145.5810000000001,517.142,1154.821,514.941,1157.5900000000001Q510.127,1163.659,502.663,1160.133C502.152,1159.893,501.711,1159.522,501.38599999999997,1159.057Q497.21000000000004,1153.153,495.59000000000003,1145.699C495.515,1145.353,495.26,1145.074,494.922,1144.969C494.584,1144.863,494.21500000000003,1144.9479999999999,493.957,1145.191L467.307,1170.19Q420.6784,1213.775,374.3454,1257.6570000000002Q371.4237,1260.425,368.4547,1263.845L354,1249.115L488.00800000000004,1125.989C488.698,1125.356,488.977,1124.392,488.72900000000004,1123.492Q477.977,1083.799,470.797,1044.626Q461.606,994.51,456.224,947.328Q445.022,849.011,449.55240000000003,748.116Q453.3967,662.423,464.516,572.27C466.219,558.44,474.582,547.248,489.155,546.455C489.703,546.431,490.14300000000003,545.985,490.172,545.4259999999999L492.053,508.808Q492.845,503.828,492.881,501.53200000000004Q493.118,486.83799999999997,494.371,473.72900000000004C495.389,463.188,495.519,453.28499999999997,496.71299999999997,442.6254Q497.589,434.7932,497.81399999999996,430.6405C498.086,425.2928,498.736,421.3768,499.351,415.9108Q501.445,397.37149999999997,517.721,388.2616C518.059,388.0727,518.42,387.9181,518.798,387.8001Q521.79,386.901,523.683,386.3213C527.918,385.0435,532.59,385.5996,536.328,386.9246Q539.072,387.8948,540.906,388.1314C541.2760000000001,388.18,541.614,387.9121,541.6510000000001,387.5399L542.928,374.7386C543.015,373.90409999999997,543.173,373.0768,543.4010000000001,372.2659C544.312,369.6513,545.1279999999999,365.4394,546.678,362.2568Q552.143,351.08829,563.4159999999999,346.55698Q574.96,341.9192,586.754,345.69331Q598.287,349.37278,605.5260000000001,359.7013C605.808,360.1094,606.031,360.5556,606.188,361.0264L607.158,363.8659Z" fill="#2F1918" fill-opacity="1" style="mix-blend-mode:passthrough"/></g><g><path d="M513.8136381787109,545.0285030517578Q513.685553178711,546.9505030517578,511.8295021787109,550.5395030517578L513.6060141787109,551.4575030517578Q515.6534181787109,547.4985030517578,515.8092181787109,545.1615030517578L518.6838281787109,499.4659030517578Q519.031548178711,493.93940305175784,520.6001881787109,480.5595030517578Q521.9673681787109,468.8981030517578,522.3849981787109,463.6821030517578L526.1702581787109,415.6703030517578Q526.588658178711,410.1972230517578,532.1459581787109,405.3672730517578L530.833958178711,403.8577330517578Q524.6570581787109,409.2262230517578,524.176458178711,415.5131030517578L520.391378178711,463.5225030517578Q519.9766781787109,468.7017030517578,518.6137981787109,480.32660305175784Q517.0388781787109,493.7600030517578,516.6877681787109,499.3404030517578L513.8136381787109,545.0285030517578Z" fill-rule="evenodd" fill="#E99F7F" fill-opacity="1" style="mix-blend-mode:passthrough"/></g><g><path d="M649.9071822509766,806.3724713287354Q650.2383822509765,808.5374713287354,649.2447822509765,808.5724713287353Q647.7779822509766,808.6314713287354,646.5832822509766,807.3424713287354C636.1503822509766,796.0314713287353,636.0675822509766,781.4324713287353,633.2523822509766,766.7974713287354Q631.4306822509766,757.2734713287354,630.9693822509765,754.3154713287354Q627.2906822509766,730.2864713287354,623.7893822509766,709.2274713287354Q622.5000822509766,701.5014713287353,622.0623822509766,698.4374713287353Q617.7212822509765,668.7054713287354,616.4791822509766,658.5074713287354C614.8823822509765,645.4814713287353,612.6821822509766,633.4964713287354,610.9078822509765,619.1214713287354Q608.0808822509765,596.2994713287353,605.4193822509766,577.0974713287353Q601.8234822509766,551.2344713287354,600.3211822509766,536.8004713287353Q597.5414822509765,510.28747132873536,596.0983822509766,496.4094713287353C595.1165822509765,486.9214713287354,593.0228822509765,474.4624713287353,592.0528822509766,463.38947132873534Q589.6161822509765,435.3374713287353,586.1267822509766,407.4042713287354C585.5589822509766,402.86117132873534,584.4470822509766,397.61997132873535,583.7018822509766,391.97657132873536C582.0694822509765,379.37647132873536,581.5963822509766,370.40852132873533,569.8149422509765,366.2558113287354C569.5355422509766,366.15504132873536,569.2835422509766,365.98430132873534,569.0815722509766,365.75890132873536Q568.6084302509765,365.25017132873535,568.3836822509766,364.59946132873534C580.0349822509766,356.60165132873533,591.0592822509766,367.33244132873534,592.5260822509765,378.65477132873536Q598.9253822509766,428.10867132873534,603.4203822509766,470.96047132873537Q606.2118822509766,497.60447132873537,607.1344822509766,504.71547132873536C610.5411822509766,531.0984713287353,613.8887822509765,564.0834713287354,616.8813822509766,585.1664713287354C619.9805822509766,607.0774713287353,622.0741822509766,626.5634713287354,625.1378822509765,647.4094713287354Q630.3779822509765,683.0804713287354,630.7682822509765,686.1684713287353C633.3232822509766,706.5174713287354,636.9310822509766,726.9264713287354,640.3377822509766,749.3104713287353Q644.6906822509766,777.8824713287354,649.9071822509766,806.3724713287354Z" fill="#FED5BB" fill-opacity="1" style="mix-blend-mode:passthrough"/></g><g><path d="M568.3837645507813,364.59912872314453Q568.6084645507813,365.24983272314455,569.0815645507812,365.75856872314455C569.2835645507812,365.9839687231445,569.5355645507813,366.15470872314455,569.8149645507813,366.2554787231445C581.5963645507812,370.4081887231445,582.0695645507813,379.3761287231445,583.7018645507812,391.9762287231445C584.4470645507813,397.6196287231445,585.5589645507813,402.86082872314455,586.1267645507812,407.4040287231445Q589.6162645507812,435.33712872314453,592.0529645507812,463.38872872314454C593.0229645507812,474.46212872314453,595.1165645507813,486.92112872314453,596.0983645507813,496.40912872314453Q597.5414645507813,510.2871287231445,600.3212645507813,536.8001287231446Q601.8234645507813,551.2341287231445,605.4194645507813,577.0971287231446Q608.0808645507813,596.2991287231446,610.9079645507812,619.1211287231445C612.6822645507813,633.4961287231445,614.8823645507813,645.4811287231446,616.4792645507813,658.5071287231445Q617.7212645507813,668.7051287231445,622.0621645507813,698.4371287231445Q622.5001645507813,701.5011287231446,623.7891645507813,709.2271287231445Q627.2911645507812,730.2861287231445,630.9691645507812,754.3151287231445Q631.4311645507812,757.2731287231445,633.2521645507812,766.7971287231445C636.0671645507813,781.4321287231446,636.1501645507813,796.0311287231445,646.5831645507812,807.3421287231445Q647.7781645507813,808.6311287231445,649.2451645507813,808.5721287231445Q650.2381645507812,808.5371287231445,649.9071645507813,806.3721287231446Q651.1851645507812,813.7661287231444,658.6371645507812,815.0201287231446Q663.7111645507813,815.8721287231446,668.3131645507813,810.3821287231445Q672.4881645507812,803.5201287231446,674.2271645507813,794.2801287231446Q674.2861645507812,793.9371287231445,675.0671645507813,790.0921287231445Q675.6941645507812,786.9571287231445,675.4451645507812,785.1701287231446Q672.0621645507813,760.8101287231445,660.3991645507813,684.5001287231446Q658.6011645507813,672.7161287231445,656.7911645507812,661.1811287231445C652.2731645507813,632.2541287231445,647.8961645507812,598.1331287231445,644.7261645507813,574.1511287231446Q635.3101645507812,502.8451287231445,628.4381645507813,441.41832872314455Q627.2791645507813,431.07802872314454,627.1721645507812,430.1551287231445Q624.9251645507812,409.95952872314456,623.6951645507812,400.8850287231445Q622.1451645507813,389.3734287231445,618.9632645507812,378.0747287231445L619.8504645507812,377.61332872314455L620.4537645507812,379.63642872314455C620.5658645507813,380.00142872314456,620.8471645507813,380.29152872314455,621.2111645507813,380.4173287231445Q622.5351645507812,380.8550287231445,623.7061645507813,381.69502872314456C633.3471645507813,388.56892872314455,634.6721645507812,397.03992872314456,637.6531645507813,410.16062872314455Q638.7761645507812,415.1060287231445,640.5151645507813,421.9325287231445Q640.8341645507812,423.1630287231445,643.4601645507812,433.69262872314454Q647.3991645507813,449.4753287231445,650.4391645507812,462.4422287231445Q652.4501645507812,470.9961287231445,654.6031645507812,481.47812872314455C657.9271645507813,497.6281287231445,661.6881645507813,511.4941287231445,664.9301645507812,526.5901287231445C667.7921645507813,539.9001287231445,670.8681645507812,550.8081287231446,672.9021645507812,561.3381287231446C676.0961645507813,577.8311287231445,680.8751645507813,596.1811287231445,683.8201645507812,611.1591287231445Q686.6121645507812,625.2731287231445,688.7641645507813,634.5011287231446Q690.9761645507813,643.9781287231446,693.7091645507812,657.8091287231446Q697.9551645507813,679.2941287231445,698.4761645507813,681.3531287231446C700.7001645507812,689.9661287231445,701.5751645507812,697.0171287231445,703.2661645507812,705.6651287231446Q703.6091645507813,707.4051287231446,712.3981645507813,751.3331287231445C714.0781645507813,759.7221287231446,715.9941645507813,767.3651287231446,721.2931645507813,774.4871287231445Q725.1611645507812,779.6931287231446,730.1411645507812,782.7451287231445Q735.2991645507813,786.9451287231445,740.7631645507813,785.8681287231445Q745.7791645507813,784.8751287231446,746.6071645507812,779.3381287231446Q751.6811645507812,773.9661287231445,753.8111645507813,766.3831287231445C755.4191645507813,760.6561287231445,753.6211645507813,752.5991287231445,752.6511645507812,747.2521287231446Q727.6221645507812,609.5501287231446,692.2071645507813,465.2221287231445Q686.8841645507812,443.54792872314454,678.9581645507812,420.70212872314454Q678.0481645507813,418.0638287231445,677.5981645507812,416.4311287231445Q676.0491645507813,410.7285287231445,674.3691645507813,404.7065287231445Q682.6131645507812,412.52682872314455,687.0021645507812,423.1630287231445Q689.2381645507812,428.58162872314455,693.6141645507812,440.44822872314455Q709.8431645507812,484.4241287231445,725.2561645507812,526.5781287231446C728.5921645507813,535.7121287231446,730.7211645507813,542.7751287231445,733.7371645507812,550.7021287231446Q735.7951645507812,556.1211287231445,740.0661645507812,568.7801287231446Q765.4031645507812,644.0851287231445,784.7781645507812,717.1301287231445Q792.2541645507813,745.3351287231445,792.3371645507813,745.6431287231445Q795.7311645507813,758.1481287231445,797.0921645507813,763.8861287231446Q799.6591645507813,774.6641287231446,801.8591645507813,782.1181287231445Q803.7511645507813,788.5191287231446,804.5561645507812,792.1511287231446C807.9861645507813,807.5311287231445,812.2441645507813,819.2321287231446,815.6981645507813,833.6421287231445Q817.3421645507813,840.5041287231445,820.3591645507813,850.5961287231446C823.8011645507813,862.0721287231445,825.7651645507813,871.9161287231445,829.5971645507813,885.4861287231445Q831.6671645507813,892.8331287231446,834.2461645507813,903.3981287231445Q838.1261645507813,919.3701287231445,843.3301645507813,936.6791287231446C846.4061645507812,946.9251287231446,852.6631645507812,953.3141287231446,858.6721645507812,960.8031287231445Q859.6071645507812,961.9621287231446,860.4941645507813,960.6961287231445C866.5851645507812,968.8361287231445,879.6561645507812,966.6591287231445,877.7281645507812,954.5561287231445Q874.6411645507812,935.1531287231445,867.9581645507812,911.7751287231446Q867.7091645507812,910.9231287231445,867.7451645507813,910.6391287231445C867.7731645507813,910.4061287231445,867.9301645507812,910.2101287231445,868.1511645507812,910.1321287231445C868.3721645507812,910.0541287231446,868.6181645507813,910.1081287231445,868.7861645507812,910.2721287231445C873.6351645507813,915.0521287231445,881.3361645507812,922.5291287231445,887.3211645507813,922.7541287231445C894.4421645507812,923.0261287231446,898.8311645507813,915.8211287231445,894.6431645507812,909.8941287231445Q892.5141645507813,906.8651287231445,887.0141645507813,902.4521287231445Q880.7561645507812,897.4241287231446,876.0131645507813,892.9401287231445Q865.7461645507813,850.7971287231445,855.0761645507812,809.6251287231446Q853.8341645507812,804.8451287231445,846.5831645507812,774.2501287231446Q844.1701645507812,764.0521287231445,842.9641645507813,756.4801287231445Q840.7521645507812,742.4961287231445,840.6921645507812,738.4971287231446Q840.4091645507813,719.0351287231445,845.0341645507813,698.2711287231446Q845.7551645507813,695.0291287231446,848.4401645507812,688.1911287231445Q850.4041645507813,683.2101287231445,851.7171645507813,678.0161287231444L851.0071645507812,683.8611287231445C850.9451645507813,684.4071287231445,850.9971645507812,684.9591287231445,851.1611645507812,685.4821287231446C851.9411645507812,688.0021287231446,851.4211645507812,690.7821287231445,851.6341645507812,693.3261287231445Q853.5151645507813,716.4791287231445,854.4371645507813,721.5191287231446C857.3121645507813,737.1011287231445,862.5051645507813,755.1791287231445,868.0881645507812,773.2451287231445Q881.7141645507813,817.3391287231445,903.8101645507812,887.3551287231445Q908.7431645507813,902.9721287231446,904.9811645507813,917.9511287231445Q901.7881645507812,930.6341287231445,900.5341645507813,937.6491287231445C898.0141645507813,951.7161287231445,893.5081645507812,967.8191287231446,890.7161645507813,980.8331287231446C888.0781645507813,993.1491287231445,885.0621645507813,1003.1581287231445,882.3651645507812,1014.6931287231446Q879.6561645507812,1026.3231287231447,875.9771645507813,1040.0711287231445Q869.4601645507812,1064.4551287231445,861.9011645507812,1091.9981287231444Q859.0031645507813,1102.5391287231446,857.5131645507813,1107.7451287231445Q853.8931645507812,1120.3451287231446,853.3371645507813,1123.5511287231445Q850.9721645507813,1137.1331287231446,858.9681645507812,1147.5091287231444C859.5651645507812,1148.2841287231445,860.7761645507812,1148.1271287231446,861.1561645507812,1147.2251287231445Q861.1681645507813,1147.1901287231444,861.1321645507812,1146.5031287231445Q870.2761645507812,1153.4011287231447,876.3681645507813,1144.6461287231446Q879.0171645507812,1148.0531287231445,881.7741645507813,1150.2061287231445Q901.5161645507812,1165.5871287231446,935.6061645507813,1191.3791287231445Q955.5731645507813,1206.4751287231445,975.7641645507813,1221.2641287231445Q984.7901645507812,1227.8781287231445,1010.4111645507812,1248.4051287231446Q1014.2431645507813,1251.4691287231444,1019.8031645507813,1254.0721287231445Q972.6061645507813,1303.0171287231447,912.5991645507813,1337.4811287231446Q881.9861645507813,1323.3311287231445,851.5751645507812,1306.4241287231446Q838.4331645507813,1299.1241287231446,818.1711645507812,1287.4591287231447C773.0911645507813,1261.5131287231445,729.7981645507813,1232.6691287231447,689.6871645507813,1199.7551287231445Q646.7131645507812,1164.4751287231445,621.5891645507812,1114.9851287231445Q613.4274645507812,1098.9071287231445,607.7141645507812,1084.7931287231445C586.9784645507813,1033.5521287231445,570.7021645507813,979.9691287231445,556.7205645507812,926.0551287231445Q548.3931645507812,893.9691287231445,541.3314645507812,858.2391287231445Q536.8719645507813,835.6651287231446,533.5836645507812,801.9821287231446Q527.8112045507812,742.7091287231445,526.6993045507812,683.9671287231445Q526.4982345507813,673.3071287231446,526.0250945507812,635.2351287231445Q525.9659245507812,630.8221287231445,524.4754945507813,608.4021287231445Q523.5292145507813,594.2171287231445,523.8130945507812,581.5221287231445Q523.9905545507812,574.0681287231446,520.6311645507812,568.7441287231445L523.1625245507812,566.4731287231446Q529.7629345507812,569.3711287231445,531.3952645507812,571.0401287231446Q534.9439645507813,574.6601287231446,535.6299645507812,582.4681287231446C536.1740645507813,588.5971287231446,536.1386645507813,594.8321287231445,536.9902645507813,602.2501287231446Q539.2495645507812,622.2561287231445,540.6689645507812,644.0491287231446Q541.0593645507812,650.0711287231445,542.0648645507813,659.9861287231445Q543.6380645507812,675.4251287231446,543.6853645507813,675.9101287231445Q544.9036645507813,688.0611287231445,546.6306645507813,699.7031287231446Q551.4923645507813,732.5341287231445,555.6441645507813,764.1111287231445C556.0818645507812,767.5071287231445,557.2646645507813,772.0261287231446,557.7615645507813,775.7171287231445Q561.6413645507812,804.2181287231446,564.8232645507812,823.0891287231445Q566.3136645507813,831.9031287231445,572.8904645507813,841.4391287231444C574.1206645507813,843.2261287231445,577.4208645507813,845.9471287231445,579.5381645507813,848.2181287231446Q580.4016645507812,849.1531287231445,580.7092645507812,848.2421287231446Q580.8038645507812,847.9701287231445,580.7683645507813,847.3311287231445Q584.8847645507813,853.3061287231445,591.1303645507812,852.4301287231445Q595.8854645507813,851.7681287231445,598.0855645507812,846.8691287231445Q602.7106645507813,839.1561287231445,604.0945645507812,830.4241287231446Q605.0290645507813,824.5091287231446,603.6923645507812,814.9371287231445Q600.0018645507812,788.4241287231446,596.2994645507813,764.4901287231446C593.7562645507812,747.9851287231445,592.0884645507813,733.1491287231445,589.9001645507813,717.9341287231446Q586.5171645507812,694.2961287231445,585.2987645507812,682.9971287231446Q577.8229645507813,613.5371287231445,575.5637645507812,578.3511287231445Q574.8421645507813,567.0291287231446,571.1871645507813,506.32412872314455Q569.2471645507812,474.07212872314454,568.2890645507813,434.30782872314455Q568.0525645507812,424.2751287231445,568.4191645507813,420.06322872314456Q568.7740645507813,416.0998287231445,568.6675645507812,412.95272872314456Q567.9578645507812,392.03542872314455,567.4019645507813,371.27185872314453C567.3941645507813,370.9270587231445,567.4421645507813,370.58347872314454,567.5438645507812,370.25438872314453Q568.4428645507812,367.4385887231445,566.9642645507813,365.55744372314456L568.3837645507813,364.59912872314453Z" fill="#F2B590" fill-opacity="1" style="mix-blend-mode:passthrough"/></g><g><path d="M566.9642205517578,365.5577621459961Q568.4428105517578,367.4389121459961,567.5438205517578,370.2547021459961C567.4420905517578,370.5838021459961,567.3941505517578,370.9273821459961,567.4018805517578,371.2721821459961Q567.9578305517579,392.0357621459961,568.6675605517578,412.9530621459961Q568.7740105517578,416.1001621459961,568.4191705517578,420.0635621459961Q568.0524805517579,424.2754621459961,568.2890305517578,434.3081621459961Q569.2471905517579,474.0727621459961,571.1870905517578,506.32376214599606Q574.8421905517578,567.0297621459961,575.5636905517578,578.3517621459961Q577.8229905517578,613.5377621459961,585.2986905517578,682.9977621459961Q586.5170905517579,694.2957621459962,589.9000905517578,717.934762145996C592.0883905517578,733.1497621459961,593.7562905517578,747.9857621459961,596.2993905517578,764.4897621459961Q600.0017905517578,788.424762145996,603.6923905517579,814.9377621459961Q605.0289905517578,824.5087621459961,604.0945905517578,830.424762145996Q602.7105905517578,839.155762145996,598.0855905517578,846.8697621459961Q597.5769905517578,841.8887621459961,596.8790905517578,837.4877621459962Q589.4387905517578,790.6017621459961,585.2158905517579,762.7387621459961Q571.9204905517578,674.8337621459962,565.7695105517578,590.4907621459961C560.4465905517578,517.6107621459961,557.6313505517578,450.77706214599607,560.0326125517578,379.5894621459961Q560.3164905517579,371.0355521459961,566.9642205517578,365.5577621459961Z" fill="#DF896E" fill-opacity="1" style="mix-blend-mode:passthrough"/></g><g><path d="M730.1414333496093,782.7452620239258Q725.1614333496094,779.6932620239259,721.2934333496094,774.4872620239257C715.9942333496094,767.3652620239258,714.0780333496093,759.7222620239259,712.3983333496094,751.3342620239257Q703.6096333496093,707.4052620239258,703.2665333496094,705.6662620239258C701.5750333496094,697.0172620239258,700.6997333496093,689.9662620239258,698.4759333496094,681.3532620239257Q697.9554333496094,679.2942620239257,693.7089333496094,657.8092620239258Q690.9765333496093,643.9782620239257,688.7645333496093,634.5022620239258Q686.6117333496094,625.2732620239258,683.8201333496094,611.1592620239257C680.8747333496094,596.1812620239258,676.0960333496093,577.8312620239258,672.9022333496093,561.3382620239258C670.8677333496094,550.8092620239258,667.7922333496094,539.9002620239257,664.9297333496094,526.5902620239258C661.6886333496094,511.4942620239258,657.9270333496094,497.6282620239258,654.6032333496094,481.47826202392577Q652.4503333496094,470.99636202392577,650.4395333496094,462.44246202392577Q647.3995333496093,449.4756620239258,643.4605333496094,433.69296202392576Q640.8346333496094,423.16326202392577,640.5152333496094,421.9328620239258Q638.7763333496093,415.1063620239258,637.6526333496093,410.1609620239258C634.6718333496094,397.0402620239258,633.3470333496093,388.5691620239258,623.7066033496094,381.6953320239258Q622.5355733496094,380.8553220239258,621.2107333496094,380.4175720239258C620.8470733496093,380.29180202392575,620.5658313496094,380.0016920239258,620.4537093496094,379.63672202392576L619.8504333496094,377.6136120239258C628.4499333496094,373.4135720239258,635.0740333496094,377.3888220239258,639.8054333496094,384.5229620239258Q642.7271333496094,388.9122620239258,645.1994333496094,397.72646202392576Q650.4986333496093,416.6088620239258,657.6077333496094,447.0738620239258Q660.3874333496094,458.9759620239258,675.5991333496094,524.6152620239258C694.2649333496094,605.1612620239258,708.0926333496094,672.8582620239258,726.9834333496094,773.1972620239258Q727.5504333496094,776.1672620239258,730.1414333496093,782.7452620239258Z" fill="#FED5BB" fill-opacity="1" style="mix-blend-mode:passthrough"/></g><g><path d="M618.9633059863281,378.075252532959Q622.1452259863281,389.373952532959,623.6948359863281,400.88555253295897Q624.9249359863281,409.96005253295897,627.1724359863281,430.155652532959Q627.2789359863282,431.078552532959,628.4381359863281,441.41885253295897Q635.3106359863282,502.846252532959,644.7262359863281,574.152252532959C647.8963359863282,598.133252532959,652.2729359863281,632.254252532959,656.7915359863281,661.181252532959Q658.6013359863281,672.7162525329591,660.3993359863281,684.5002525329589Q672.0624359863282,760.811252532959,675.4454359863281,785.171252532959Q675.6938359863282,786.957252532959,675.0669359863281,790.093252532959Q674.2862359863282,793.938252532959,674.2270359863281,794.281252532959Q672.4882359863282,803.521252532959,668.3127359863281,810.383252532959Q668.2181359863281,807.319252532959,668.0643359863282,804.361252532959Q667.9223359863281,801.486252532959,667.4137359863281,798.362252532959Q638.7172359863281,623.807252532959,619.4719659863281,446.83755253295897C616.8932759863281,423.13985253295897,614.6103459863281,407.36905253295896,612.8005499863282,388.462952532959Q612.5994462863281,386.380672532959,612.6231267763281,384.736152532959C612.6308878863281,384.240512532959,612.7741259863282,383.757552532959,613.0371389863282,383.340082532959Q615.2372659863281,379.82625253295896,618.9633059863281,378.075252532959Z" fill="#DF896E" fill-opacity="1" style="mix-blend-mode:passthrough"/></g><g><path d="M860.4943049316406,960.6968390197754Q859.6063049316406,961.9628390197754,858.6723049316406,960.8028390197754C852.6633049316406,953.3138390197754,846.4063049316406,946.9248390197754,843.3303049316406,936.6798390197754Q838.1253049316406,919.3708390197754,834.2463049316407,903.3988390197753Q831.6673049316406,892.8338390197754,829.5973049316406,885.4858390197753C825.7643049316406,871.9158390197754,823.8013049316406,862.0728390197754,820.3593049316406,850.5968390197754Q817.3423049316407,840.5048390197753,815.6983049316407,833.6428390197755C812.2443049316406,819.2318390197754,807.9863049316407,807.5308390197754,804.5563049316406,792.1508390197754Q803.7513049316406,788.5188390197754,801.8593049316406,782.1178390197754Q799.6583049316406,774.6648390197754,797.0923049316407,763.8868390197754Q795.7313049316406,758.1488390197753,792.3373049316406,745.6428390197755Q792.2543049316406,745.3348390197755,784.7783049316406,717.1298390197753Q765.4028049316406,644.0848390197754,740.0657049316407,568.7798390197754Q735.7955049316406,556.1208390197754,733.7373049316407,550.7018390197754C730.7210049316407,542.7748390197754,728.5918049316406,535.7118390197754,725.2561049316406,526.5788390197754Q709.8433049316407,484.4243390197754,693.6143049316406,440.4482390197754Q689.2377049316407,428.58163901977537,687.0021049316406,423.1630390197754Q682.6136049316407,412.52683901977537,674.3689949316406,404.7065090197754Q671.3053649316406,402.6597390197754,669.3063049316406,399.8439490197754C675.6938449316406,393.3013490197754,684.8138049316407,397.8799790197754,688.9420049316407,404.6118590197754Q693.1293049316406,411.4384390197754,695.9209049316406,418.6317390197754C709.9616049316406,454.7756390197754,726.1433049316406,495.5101390197754,739.0602049316407,532.0798390197754C764.5985049316406,604.3678390197754,784.0923049316407,670.4798390197755,802.5333049316406,740.4488390197754Q818.8213049316406,802.2068390197753,834.0683049316406,858.8658390197754Q834.5653049316406,860.7358390197753,854.2953049316407,935.6268390197754C856.1643049316406,942.7248390197753,858.0333049316406,952.4388390197754,860.4943049316406,960.6968390197754Z" fill="#FED5BB" fill-opacity="1" style="mix-blend-mode:passthrough"/></g><g><path d="M669.3063119921875,399.843936920166Q671.3053719921875,402.659726920166,674.3690019921875,404.706506920166Q676.0486919921875,410.728536920166,677.5982919921875,416.431136920166Q678.0477919921875,418.063836920166,678.9585919921875,420.702136920166Q686.8837919921875,443.547936920166,692.2066919921875,465.222536920166Q727.6218919921876,609.549936920166,752.6514919921875,747.251936920166C753.6213919921875,752.599936920166,755.4193919921875,760.656936920166,753.8106919921875,766.382936920166Q751.6814919921875,773.9659369201661,746.6069919921875,779.337936920166Q745.7197919921875,772.806936920166,744.6078919921875,766.595936920166Q725.0076919921875,657.903936920166,709.3346919921875,588.324936920166Q696.8435919921875,532.8609369201661,683.9147919921875,477.491336920166Q678.2724919921875,453.320436920166,667.4373929921875,406.836106920166Q666.3609759921875,402.233806920166,669.3063119921875,399.843936920166Z" fill="#DF896E" fill-opacity="1" style="mix-blend-mode:passthrough"/></g><g><path d="M531.4899774414063,404.6125605104492Q525.6228774414062,409.71176821044924,525.1734774414062,415.5917782104492Q523.6474774414063,435.6454782104492,521.3881774414062,463.6023782104492C520.4892774414062,474.8300782104492,518.3364774414063,489.0628782104492,517.6858274414062,499.4031782104492Q516.3018874414063,521.4444782104492,514.8114574414062,545.0944782104492Q514.6695174414062,547.2244782104492,512.7177874414062,550.9984782104492L509.22830744140623,554.3344782104492C509.0406304414062,554.5094782104493,508.76556044140625,554.5524782104492,508.53377244140626,554.4424782104493C508.30194944140624,554.3334782104492,508.16008244140625,554.0934782104492,508.17553259140624,553.8384782104492C511.2628474414062,512.0154782104493,512.4457174414063,465.66097821044923,516.6685774414062,419.5315782104492C517.4255974414062,411.2379782104492,522.1452774414063,403.86720521044924,531.4899774414063,404.6125605104492Z" fill="#F2B590" fill-opacity="1" style="mix-blend-mode:passthrough"/></g><g><path d="M512.7177581787109,550.9985030517578Q514.6694881787109,547.2245030517578,514.8114281787109,545.0945030517578Q516.301858178711,521.4445030517578,517.6857981787109,499.4031030517578C518.336398178711,489.0628030517578,520.4891981787109,474.8300030517578,521.388188178711,463.6023030517578Q523.647458178711,435.6454030517578,525.1733581787109,415.5917030517578Q525.6228581787109,409.71171305175784,531.4899581787109,404.6125030517578Q539.817358178711,406.6711130517578,539.935558178711,416.57370305175783C540.515258178711,465.9094030517578,540.881958178711,504.7625030517578,543.9928581787109,546.4085030517579Q544.099358178711,547.7445030517579,543.8627581787109,548.9285030517578C543.7939581787109,549.2705030517578,543.401958178711,549.4395030517578,543.0938581787109,549.2595030517577Q527.5864581787109,539.9125030517578,512.7177581787109,550.9985030517578Z" fill="#DF896E" fill-opacity="1" style="mix-blend-mode:passthrough"/></g><g><path d="M580.7684518798828,847.3310220947266Q580.8038518798828,847.9700220947266,580.7092518798828,848.2420220947265Q580.4016518798828,849.1530220947266,579.5382518798829,848.2190220947266C577.4208518798828,845.9470220947265,574.1206518798829,843.2260220947265,572.8904518798828,841.4390220947266Q566.3137518798828,831.9040220947265,564.8232518798828,823.0890220947265Q561.6413518798828,804.2190220947266,557.7615518798829,775.7180220947266C557.2647518798829,772.0260220947266,556.0818518798828,767.5070220947266,555.6441518798828,764.1110220947265Q551.4923518798828,732.5340220947265,546.6307518798828,699.7030220947265Q544.9037518798829,688.0610220947266,543.6853518798828,675.9110220947266Q543.6380518798828,675.4260220947266,542.0648518798828,659.9861220947266Q541.0594518798828,650.0716220947265,540.6690518798828,644.0496220947266Q539.2496518798828,622.2567220947266,536.9903518798828,602.2504220947266C536.1386518798828,594.8323220947266,536.1741518798829,588.5973220947266,535.6300518798828,582.4688220947265Q534.9439518798828,574.6603220947266,531.3953318798829,571.0400220947265Q529.7629618798828,569.3718420947266,523.1625518798828,566.4732120947266C533.6427518798828,559.7058320947266,544.8564518798828,568.1768920947266,545.7080518798828,579.2389220947266Q551.6697518798828,656.5551220947266,558.1282518798828,705.8430220947266Q565.1190518798828,759.1310220947266,576.8767518798828,830.2830220947266Q578.5091518798828,840.1730220947265,580.7684518798828,847.3310220947266Z" fill="#FED5BB" fill-opacity="1" style="mix-blend-mode:passthrough"/></g><g><path d="M586.4459580688476,1383.0898635253907Q534.8729580688477,1370.0288635253905,487.5698580688477,1347.1948635253907Q480.87485806884763,1343.9648635253907,474.28623806884764,1340.3918635253906C476.8648880688477,1338.4048635253907,479.75105806884767,1336.7008635253906,482.09315806884763,1334.8318635253906Q533.8793580688476,1293.4348635253905,577.3259580688476,1243.4718635253907C577.5859580688476,1243.1678635253907,577.6629580688476,1242.7498635253905,577.5269580688476,1242.3758635253907C577.3919580688477,1242.0028635253907,577.0659580688476,1241.7338635253905,576.6759580688476,1241.6738635253905Q538.2795580688477,1235.7818635253907,505.3248580688477,1215.2428635253905Q482.80295806884766,1201.1988635253906,471.63661806884767,1177.8088635253907Q469.9924080688477,1174.3668635253907,469.18806806884766,1171.5028635253907C469.09528806884765,1171.1708635253906,468.90631806884767,1170.8708635253906,468.64395806884767,1170.6398635253906Q467.98154806884764,1170.0718635253907,467.30730306884766,1170.1898635253906L493.95735806884767,1145.1908635253906C494.21535806884765,1144.9478635253906,494.58395806884766,1144.8638635253906,494.92205806884766,1144.9688635253906C495.26015806884766,1145.0738635253906,495.51525806884763,1145.3538635253906,495.5897580688477,1145.6998635253906Q497.2102580688477,1153.1528635253908,501.38585806884765,1159.0568635253908C501.7111580688477,1159.5218635253905,502.15165806884767,1159.8928635253906,502.66335806884763,1160.1338635253906Q510.12725806884765,1163.6588635253906,514.9415580688476,1157.5898635253907C517.1416580688476,1154.8218635253907,513.9361580688477,1145.5818635253906,512.4811580688477,1140.7068635253906Q511.28645806884765,1136.7198635253908,509.21645806884766,1128.7098635253906Q484.5535580688477,1033.2808635253905,474.72389806884763,942.1698635253906C469.9687680688477,898.0868635253906,466.7158670688477,851.3188635253906,467.01158486884765,804.8338635253906Q467.27181806884767,762.6088635253907,469.08160806884763,729.7898635253906Q473.0797180688477,657.3835635253906,481.96305806884766,578.3045635253907C482.66095806884766,572.0932535253907,482.61365806884766,569.5850635253906,486.95475806884764,566.1185735253906C491.69815806884765,562.3326035253906,496.64245806884765,565.4205405253906,498.38135806884765,570.3304335253906Q499.37495806884766,573.1580435253907,499.28035806884765,578.9434635253906C498.38135806884765,634.6441635253906,497.73075806884765,673.8288635253906,498.9609580688477,722.9748635253907Q501.8234580688477,837.8668635253906,523.0678580688476,956.2838635253906Q530.1769580688476,995.9058635253906,541.0711580688477,1042.3428635253906Q549.3512580688476,1077.6358635253905,559.4766580688477,1112.5848635253906Q568.2649580688477,1142.9788635253906,581.8679580688477,1170.9348635253905Q599.8599580688476,1207.9078635253907,629.9169580688476,1237.6628635253905Q647.3759580688477,1254.9598635253906,667.4139580688477,1270.4938635253907C668.0209580688477,1270.9608635253908,668.1469580688477,1271.8218635253907,667.6979580688477,1272.4338635253907L586.4459580688476,1383.0898635253907Z" fill="#DF896E" fill-opacity="1" style="mix-blend-mode:passthrough"/></g><g><path d="M912.5989986572265,1337.4815373535157Q897.9319986572266,1346.0935373535158,880.8509986572266,1353.9855373535156Q857.2999986572265,1364.8585373535157,832.7439986572265,1373.5065373535156Q758.0929986572265,1319.1545373535155,682.6019986572265,1258.6145373535155Q664.4449986572265,1244.0505373535157,648.9489986572265,1229.5935373535158C618.4069986572266,1201.1155373535157,596.8435986572266,1165.3975373535156,583.8201986572266,1125.8705373535156Q572.1688986572266,1090.4595373535158,562.4456986572266,1049.8555373535155Q545.9327986572266,980.8215373535156,535.7364986572265,916.7085373535156Q527.2079986572265,863.0305373535157,522.3582186572265,802.2545373535156Q514.3146686572265,701.5015373535157,517.4256226572265,599.6354373535156Q517.4729476572265,598.3341373535156,517.6385286572265,577.8426473535156Q517.6858586572266,572.7434473535156,520.6311986572266,568.7445373535156Q523.9905786572266,574.0685273535156,523.8131186572266,581.5221373535156Q523.5292486572266,594.2168373535156,524.4755286572266,608.4023373535156Q525.9659586572266,630.8222373535157,526.0251186572266,635.2352373535157Q526.4982686572266,673.3075373535156,526.6992986572266,683.9675373535156Q527.8111986572266,742.7085373535156,533.5836986572266,801.9825373535157Q536.8719986572265,835.6655373535157,541.3314986572266,858.2395373535156Q548.3931986572265,893.9695373535156,556.7205986572266,926.0555373535155C570.7021986572265,979.9695373535156,586.9784986572265,1033.5525373535156,607.7141986572266,1084.7925373535156Q613.4274986572266,1098.9075373535156,621.5889986572265,1114.9855373535156Q646.7139986572265,1164.4755373535156,689.6869986572266,1199.7555373535156C729.7979986572266,1232.6695373535156,773.0919986572266,1261.5135373535156,818.1709986572266,1287.4595373535158Q838.4329986572266,1299.1245373535157,851.5749986572266,1306.4245373535155Q881.9869986572265,1323.3315373535156,912.5989986572265,1337.4815373535157Z" fill="#DF896E" fill-opacity="1" style="mix-blend-mode:passthrough"/></g><g><path d="M854.4376157714844,671.2256445253906Q852.1310157714844,672.4442485253907,851.7169157714844,678.0166785253906Q850.4039157714843,683.2104885253906,848.4404157714844,688.1913885253906Q845.7553157714843,695.0297885253906,845.0337157714844,698.2714885253906Q840.4087157714844,719.0350885253906,840.6925157714844,738.4971885253906Q840.7517157714843,742.4960885253906,842.9637157714844,756.4803885253906Q844.1702157714843,764.0522885253906,846.5833157714844,774.2509885253907Q853.8343157714844,804.8459885253906,855.0763157714844,809.6259885253907Q865.7458157714843,850.7979885253906,876.0131157714844,892.9399885253906L861.3101157714843,882.8479885253906C861.1770157714843,882.7539885253907,861.0607157714844,882.6339885253906,860.9670157714844,882.4929885253906Q859.8551157714844,880.8489885253906,858.5303157714844,876.0099885253906Q844.8208157714844,825.8109885253906,824.6765007714844,748.9794885253906C824.4895109714844,748.2700885253906,824.4571668714843,747.5277885253906,824.5818506714844,746.8025885253907Q825.9776257714843,739.0886885253906,828.1659857714844,726.0153885253907Q830.2004857714844,713.8529885253906,834.6008157714843,698.1531885253906C836.8956157714844,689.9778885253907,840.2667157714844,679.3890885253907,846.6187157714844,673.5090385253907Q850.1201157714844,670.2673295253907,854.4376157714844,671.2256445253906Z" fill="#DF896E" fill-opacity="1" style="mix-blend-mode:passthrough"/></g><g><path d="M854.437529453125,671.2251586914062Q858.695839453125,673.3784286914063,859.097979453125,677.5074586914062Q862.043389453125,707.7240586914063,867.886789453125,732.2617586914063Q869.779389453125,740.2713586914062,876.131389453125,761.3780586914063Q892.147389453125,814.6531586914062,909.062489453125,866.5681586914062Q911.144289453125,872.9691586914063,913.758489453125,882.2321586914063C917.401789453125,895.1871586914062,917.153289453125,907.6341586914062,915.059689453125,920.5771586914062Q912.753089453125,934.8691586914063,908.281789453125,954.0121586914063Q889.462389453125,1034.5221586914063,865.130689453125,1120.5811586914062Q864.030589453125,1124.4501586914062,859.724929453125,1137.3701586914062Q858.045279453125,1142.3981586914063,861.132589453125,1146.5031586914063Q861.167989453125,1147.1901586914062,861.156189453125,1147.2251586914062C860.775969453125,1148.1261586914063,859.565449453125,1148.2831586914062,858.967879453125,1147.5091586914064Q850.971654153125,1137.1331586914062,853.337399453125,1123.5511586914063Q853.893389453125,1120.3451586914061,857.512969453125,1107.7451586914062Q859.003399453125,1102.5391586914063,861.901489453125,1091.9971586914062Q869.459989453125,1064.4551586914063,875.977589453125,1040.0711586914063Q879.656289453125,1026.3231586914062,882.365089453125,1014.6931586914063C885.061989453125,1003.1581586914062,888.078289453125,993.1491586914062,890.716189453125,980.8331586914062C893.507789453125,967.8181586914063,898.014489453125,951.7161586914062,900.5339894531251,937.6491586914062Q901.787889453125,930.6331586914063,904.981589453125,917.9501586914063Q908.743089453125,902.9721586914063,903.810589453125,887.3551586914062Q881.714589453125,817.3391586914063,868.087889453125,773.2441586914063C862.504689453125,755.1785586914062,857.311899453125,737.1006586914062,854.437529453125,721.5190586914063Q853.514859453125,716.4790586914063,851.634059453125,693.3256586914063C851.421151453125,690.7819586914062,851.941617453125,688.0016586914062,851.160954453125,685.4815586914062C850.997139553125,684.9586586914063,850.944796953125,684.4065586914063,851.007174953125,683.8607586914062L851.716869453125,678.0161886914062Q852.130919453125,672.4437586914063,854.437529453125,671.2251586914062Z" fill="#FED5BB" fill-opacity="1" style="mix-blend-mode:passthrough"/></g><g><path d="M1028.3909809570312,1244.3589145507813L1019.8029809570312,1254.0729145507812Q1014.2439809570312,1251.4699145507811,1010.4109809570313,1248.4049145507813Q984.7899809570313,1227.8784145507811,975.7646809570313,1221.2648145507812Q955.5730809570313,1206.4760145507812,935.6061809570313,1191.3795145507813Q901.5158809570313,1165.5877145507814,881.7737109570312,1150.2073145507813Q879.0176009570313,1148.0541145507812,876.3679809570312,1144.6468145507813L879.7391409570313,1134.2353735507813C879.9362309570313,1133.6346481507812,880.6653509570313,1133.4056665507812,881.1704409570312,1133.7857865507813L1028.3909809570312,1244.3589145507813Z" fill="#FED5BB" fill-opacity="1" style="mix-blend-mode:passthrough"/></g><g><path d="M467.30735578308105,1170.189553053125Q467.98155578308103,1170.071271053125,468.643755783081,1170.639140453125C468.90675578308105,1170.870649453125,469.0957557830811,1171.170619453125,469.18775578308106,1171.502789453125Q469.99275578308107,1174.365959453125,471.63675578308107,1177.808769453125Q482.80275578308107,1201.198889453125,505.32475578308106,1215.242289453125Q538.2797557830811,1235.781089453125,576.6757557830811,1241.672889453125C577.065755783081,1241.732889453125,577.392755783081,1242.002189453125,577.527755783081,1242.375189453125C577.662755783081,1242.749089453125,577.585755783081,1243.167689453125,577.325755783081,1243.4712894531249Q533.879755783081,1293.434189453125,482.0927557830811,1334.831189453125C479.75075578308105,1336.700189453125,476.864755783081,1338.4041894531251,474.28675578308105,1340.391189453125Q420.74955578308106,1312.127189453125,375.83588578308104,1271.440189453125Q372.96151578308104,1268.837089453125,368.45475578308105,1263.8444894531249Q371.42377578308106,1260.425289453125,374.34546578308107,1257.656789453125Q420.67855578308104,1213.775289453125,467.30735578308105,1170.189553053125Z" fill="#F2B590" fill-opacity="1" style="mix-blend-mode:passthrough"/></g></g></g></svg>